<svg width="272" height="281" viewBox="0 0 272 281" fill="none" xmlns="http://www.w3.org/2000/svg">
<g opacity="0.1">
<path d="M10.4574 0L95.0586 133.67L-3.07878 282.568" stroke="white"/>
<path d="M157.141 0L241.742 133.67L143.605 282.568" stroke="white"/>
<path d="M230.483 0L315.084 133.67L216.947 282.568" stroke="white"/>
<path d="M-62.8863 0L21.7148 133.67L-76.4225 282.568" stroke="white"/>
<path d="M83.7992 0L168.4 133.67L70.263 282.568" stroke="white"/>
<path d="M279.377 0L363.979 133.67L265.841 282.568" stroke="white"/>
<path d="M-13.9899 0L70.6113 133.67L-27.526 282.568" stroke="white"/>
<path d="M132.694 0L217.295 133.67L119.158 282.568" stroke="white"/>
<path d="M206.036 0L290.637 133.67L192.499 282.568" stroke="white"/>
<path d="M59.3519 0L143.953 133.67L45.8157 282.568" stroke="white"/>
<path d="M254.93 0L339.531 133.67L241.394 282.568" stroke="white"/>
<path d="M-38.4371 0L46.1641 133.67L-51.9733 282.568" stroke="white"/>
<path d="M108.246 0L192.848 133.67L94.7103 282.568" stroke="white"/>
<path d="M181.588 0L266.189 133.67L168.052 282.568" stroke="white"/>
<path d="M34.9047 0L119.506 133.67L21.3685 282.568" stroke="white"/>
</g>
</svg>
