<svg width="186" height="40" viewBox="0 0 186 40" fill="none" xmlns="http://www.w3.org/2000/svg">
<path fill-rule="evenodd" clip-rule="evenodd" d="M169.601 0L181.419 20L169.601 40H166.763L178.43 20.2544L178.581 20L178.43 19.7456L166.763 0H169.601ZM170.763 0L182.43 19.7456L182.581 20L182.43 20.2544L170.763 40H186V0H170.763ZM177.419 20L165.601 0H162.763L174.43 19.7456L174.581 20L174.43 20.2544L162.763 40H165.601L177.419 20ZM161.601 0L173.419 20L161.601 40H158.763L170.43 20.2544L170.581 20L170.43 19.7456L158.763 0H161.601ZM169.419 20L157.601 0H0V40H157.601L169.419 20Z" fill="#DC000B"/>
</svg>
