<svg width="125" height="30" viewBox="0 0 125 30" fill="none" xmlns="http://www.w3.org/2000/svg">
<g opacity="0.2">
<path d="M61.4206 29.0291L69.8125 15.7699L60.0779 1.00004" stroke="white"/>
<path d="M93.6471 29.0291L102.039 15.7699L92.3044 1.00004" stroke="white"/>
<path d="M29.196 29.0291L37.5879 15.7698L27.8532 1.00001" stroke="white"/>
<path d="M109.758 29.0291L118.15 15.7699L108.416 1.00004" stroke="white"/>
<path d="M45.3092 29.0291L53.7012 15.7698L43.9665 1.00001" stroke="white"/>
<path d="M77.5338 29.0291L85.9258 15.7699L76.1911 1.00004" stroke="white"/>
<path d="M13.0846 29.0291L21.4766 15.7698L11.7419 1.00001" stroke="white"/>
<path d="M56.0495 29.0291L64.4414 15.7699L54.7068 1.00004" stroke="white"/>
<path d="M88.276 29.0291L96.668 15.7699L86.9333 1.00004" stroke="white"/>
<path d="M23.8249 29.0291L32.2168 15.7698L22.4822 1.00001" stroke="white"/>
<path d="M104.387 29.0291L112.779 15.7699L103.045 1.00004" stroke="white"/>
<path d="M39.9381 29.0291L48.3301 15.7698L38.5954 1.00001" stroke="white"/>
<path d="M72.1628 29.0291L80.5547 15.7699L70.82 1.00004" stroke="white"/>
<path d="M7.71353 29.0291L16.1055 15.7698L6.37083 1.00001" stroke="white"/>
<path d="M115.13 29.0291L123.521 15.7699L113.787 1.00004" stroke="white"/>
<path d="M50.6803 29.0291L59.0723 15.7698L49.3376 1.00001" stroke="white"/>
<path d="M82.9049 29.0291L91.2969 15.7699L81.5622 1.00004" stroke="white"/>
<path d="M18.4538 29.0291L26.8457 15.7698L17.1111 1.00001" stroke="white"/>
<path d="M99.0182 29.0291L107.41 15.7699L97.6755 1.00004" stroke="white"/>
<path d="M34.567 29.0291L42.959 15.7698L33.2243 1.00001" stroke="white"/>
<path d="M66.7917 29.0291L75.1836 15.7699L65.449 1.00004" stroke="white"/>
<path d="M2.34244 29.0291L10.7344 15.7698L0.999732 1.00001" stroke="white"/>
</g>
</svg>
