<svg width="89" height="40" viewBox="0 0 89 40" fill="none" xmlns="http://www.w3.org/2000/svg">
<g opacity="0.5">
<path d="M0.863281 19.1654V0.938232H14.6111V5.27942H6.90614V19.1654H0.863281Z" fill="black"/>
<path d="M16.6601 15.2872C16.7235 15.0311 16.7876 14.7353 16.8529 14.4007C16.9164 14.0669 16.9759 13.7249 17.0331 13.3738C17.0895 13.0224 17.1497 12.68 17.2131 12.3467C17.2772 12.0139 17.3425 11.7095 17.4053 11.4349L18.5374 6.37524H24.6042L19.6453 21.3105C19.2603 22.4235 18.6503 23.2248 17.8157 23.7121C16.9805 24.2005 16.0176 24.4443 14.9256 24.4443C14.3155 24.4443 13.6704 24.3889 12.9873 24.2775C12.3057 24.1666 11.6029 24.0077 10.8811 23.802L11.6029 19.8481C11.9733 19.8806 12.2574 19.9072 12.4598 19.9244C12.6589 19.9411 12.8472 19.9497 13.0241 19.9497C13.6977 19.9497 14.3764 20.0477 14.6331 19.8681C14.8888 19.6879 14.8692 19.593 14.9985 19.1139L15.1665 18.4976H12.6393L8.97852 6.37524H14.7574L15.8895 11.5627C15.9378 11.8203 15.9859 12.1114 16.0322 12.4364C16.0824 12.7623 16.1305 13.091 16.1787 13.4253C16.2264 13.7596 16.2752 14.084 16.3233 14.4007C16.3696 14.7179 16.4191 15.0037 16.4672 15.2622L16.6601 15.2872Z" fill="black"/>
<path d="M30.7422 10.3056L30.6933 10.8964C30.6135 11.8378 30.4968 12.6846 30.3453 13.4379C30.1924 14.1923 29.9799 14.8084 29.7059 15.2876H32.3069V10.3056H30.7422ZM37.7965 15.2876L39.1925 15.391V23.6964H35.0517V19.1657H27.2757V23.5938H22.9648V15.391L24.3385 15.2876C24.7705 14.7738 25.1161 14.0927 25.3735 13.2461C25.6292 12.3991 25.8139 11.2386 25.9266 9.76547L26.1671 6.4021H37.8213L37.7965 15.2876Z" fill="black"/>
<path d="M48.7866 12.7451C48.7866 11.9059 48.6985 11.2939 48.5223 10.9085C48.3446 10.5237 48.0155 10.3307 47.5347 10.3307C47.0535 10.3307 46.7235 10.5536 46.5473 10.998C46.3716 11.4431 46.2829 12.0252 46.2829 12.7451C46.2829 13.6514 46.3716 14.3028 46.5473 14.6969C46.7235 15.0908 47.0535 15.2874 47.5347 15.2874C48.0155 15.2874 48.3446 15.0908 48.5223 14.6969C48.6985 14.3028 48.7866 13.6514 48.7866 12.7451ZM54.8059 12.7451C54.8059 13.7378 54.6702 14.6451 54.3963 15.4674C54.1229 16.2897 53.6935 16.9959 53.1081 17.5865C52.5216 18.1771 51.7719 18.6359 50.8567 18.9607C49.9421 19.2853 48.8349 19.4481 47.5347 19.4481C46.2187 19.4481 45.1025 19.2853 44.1888 18.9607C43.2729 18.6359 42.5264 18.1771 41.9494 17.5865C41.3716 16.9959 40.9505 16.2897 40.6854 15.4674C40.4209 14.6451 40.2871 13.7378 40.2871 12.7451C40.2871 11.7686 40.4209 10.8698 40.6854 10.0482C40.9505 9.22566 41.3747 8.52484 41.9607 7.94218C42.5467 7.36067 43.2977 6.90579 44.2123 6.58099C45.1273 6.2562 46.2339 6.09277 47.5347 6.09277C48.8349 6.09277 49.9455 6.2562 50.8682 6.58099C51.7922 6.90579 52.5431 7.36067 53.121 7.94218C53.698 8.52484 54.1229 9.22566 54.3963 10.0482C54.6702 10.8698 54.8059 11.7686 54.8059 12.7451Z" fill="black"/>
<path d="M67.8177 12.5129C68.188 12.616 68.493 12.7492 68.7335 12.9114C68.9745 13.0753 69.1755 13.2506 69.3361 13.4375C69.4964 13.6263 69.6278 13.8368 69.7317 14.0669C69.837 14.2983 69.9289 14.5343 70.0101 14.7734L71.4054 19.1657H65.5548L64.5198 15.6463C64.3442 15.0814 64.131 14.7087 63.883 14.5298C63.6325 14.3495 63.236 14.2599 62.6913 14.2599H61.9449V19.1657H56.1895V6.37524H61.9449V10.792H62.6184C63.0675 10.792 63.4377 10.6866 63.7258 10.4714C64.0149 10.2583 64.2387 9.89446 64.4006 9.38L65.2669 6.37524H70.7807L69.7938 10.1764C69.6651 10.6571 69.4368 11.1009 69.107 11.5122C68.7773 11.9232 68.3485 12.2228 67.8177 12.4103V12.5129Z" fill="black"/>
<path d="M80.0211 15.803C75.5473 15.803 71.9082 12.2575 71.9082 7.90121C71.9082 3.54421 75.5473 0 80.0211 0C84.4954 0 88.1352 3.54421 88.1352 7.90121C88.1352 12.2575 84.4954 15.803 80.0211 15.803ZM80.0211 1.61711C76.4764 1.61711 73.5926 4.43619 73.5926 7.90121C73.5926 11.3669 76.4764 14.1865 80.0211 14.1865C83.5662 14.1865 86.4506 11.3669 86.4506 7.90121C86.4506 4.43619 83.5662 1.61711 80.0211 1.61711Z" fill="black"/>
<path d="M77.7571 7.44661V9.37831H79.2698V5.31104H77.7571L77.123 6.33757L76.4748 7.37075H76.4494V5.31104H74.9082V9.37831H76.4494L77.0063 8.53859L77.7134 7.44661H77.7571Z" fill="black"/>
<path d="M82.4619 6.29013H82.9789V8.38032H81.9425C82.0332 8.25884 82.1055 8.13345 82.1588 8.00464C82.2126 7.87559 82.2578 7.73818 82.2919 7.59378C82.3269 7.44937 82.3542 7.29225 82.3712 7.12721C82.3903 6.96046 82.4106 6.78018 82.4296 6.5842L82.4619 6.29013ZM83.7989 9.37832V10.4931H84.9716V8.40278L84.5098 8.38032V5.31104H81.1656L81.073 6.40817C81.0572 6.60002 81.0362 6.7851 81.0116 6.96526C80.9874 7.14485 80.9513 7.31723 80.9075 7.48226C80.8612 7.64603 80.8003 7.80373 80.7255 7.95466C80.648 8.10503 80.553 8.24703 80.4375 8.38032L79.9688 8.40278V10.4931H81.1401V9.37832H83.7989Z" fill="black"/>
<path d="M1.46094 29.8253C1.46094 29.7721 1.49142 29.7458 1.55606 29.7458H1.80602C1.84659 29.7458 1.86561 29.7721 1.86561 29.8253V34.7217L3.59766 32.3491L5.42541 29.8491C5.49704 29.7809 5.54781 29.7458 5.58013 29.7458H5.84269C5.89919 29.7458 5.92715 29.7721 5.92715 29.8253V35.26C5.92715 35.3141 5.89472 35.3416 5.83123 35.3416H5.58013C5.54024 35.3416 5.52122 35.3141 5.52122 35.26V30.32L3.99214 32.4179L1.89037 35.2953C1.88269 35.3031 1.87066 35.3124 1.85415 35.3233C1.83834 35.3354 1.81805 35.3416 1.79456 35.3416H1.54345C1.48752 35.3416 1.46094 35.3141 1.46094 35.26V29.8253Z" fill="black"/>
<path d="M9.53192 32.371C9.68423 32.38 9.83769 32.4129 9.99241 32.4751C10.1485 32.5365 10.2874 32.6234 10.4122 32.7387C10.5366 32.8529 10.6381 32.9941 10.7167 33.163C10.7947 33.3305 10.834 33.5186 10.834 33.7245C10.834 34.2974 10.6293 34.7257 10.2201 35.0084C9.80984 35.2911 9.21801 35.433 8.44625 35.433C8.21475 35.433 7.94829 35.4164 7.64653 35.3848C7.34396 35.3538 7.05287 35.2901 6.7738 35.196C6.71867 35.1723 6.6977 35.1339 6.71478 35.0779L6.73827 34.9628C6.75408 34.9086 6.79408 34.8862 6.85746 34.8941C7.07246 34.9251 7.25962 34.9507 7.41881 34.9737C7.578 34.997 7.7169 35.0141 7.83677 35.0251C7.95665 35.0378 8.06438 35.0448 8.15951 35.0481C8.25532 35.0525 8.34666 35.0549 8.43479 35.0549C9.05573 35.0549 9.53834 34.9495 9.8833 34.74C10.2284 34.5312 10.4021 34.2096 10.4021 33.7765C10.4021 33.5332 10.3527 33.3315 10.2537 33.171C10.1554 33.0121 10.0248 32.8855 9.86187 32.795C9.69879 32.7034 9.51106 32.6407 9.29984 32.6069C9.08931 32.5713 8.87236 32.5554 8.64922 32.5554H8.39869C8.33463 32.5554 8.30231 32.5287 8.30231 32.4751V32.2687C8.30231 32.2224 8.33463 32.1992 8.39869 32.1992H8.60223C8.82422 32.1992 9.03923 32.1746 9.24598 32.1256C9.45261 32.0764 9.6322 32.002 9.78371 31.9033C9.93465 31.8044 10.0558 31.6871 10.1485 31.5557C10.2392 31.4221 10.2855 31.2683 10.2855 31.0929C10.2855 30.8808 10.2435 30.7038 10.1599 30.563C10.0762 30.422 9.96319 30.3106 9.81936 30.2265C9.67598 30.1432 9.50464 30.0862 9.30614 30.0555C9.10707 30.0244 8.89207 30.0099 8.66183 30.0099C8.57438 30.0099 8.46528 30.014 8.3391 30.0213C8.21165 30.0287 8.07779 30.0384 7.93877 30.0498C7.7993 30.0612 7.66234 30.0746 7.52596 30.0901C7.39084 30.106 7.26787 30.12 7.15624 30.1358C7.0688 30.1516 7.02112 30.1327 7.01287 30.0786L7.00026 29.9976C6.98433 29.927 7.00851 29.8795 7.07246 29.8564C7.37503 29.7541 7.67621 29.6908 7.97442 29.6664C8.2724 29.6433 8.51731 29.6311 8.70881 29.6311C9.12231 29.6311 9.46155 29.6712 9.72354 29.7513C9.98737 29.8324 10.1922 29.9374 10.3413 30.0665C10.4903 30.1973 10.5918 30.3501 10.6451 30.5258C10.7002 30.7019 10.7275 30.8811 10.7275 31.0649C10.7275 31.2022 10.7033 31.3395 10.6571 31.4774C10.6108 31.6144 10.5385 31.7426 10.4421 31.8613C10.3451 31.9801 10.2208 32.0823 10.0705 32.1718C9.91883 32.258 9.73936 32.3183 9.53192 32.3491V32.371Z" fill="black"/>
<path d="M11.9089 35.3416L11.8391 36.6354C11.8314 36.7358 11.7921 36.7849 11.723 36.7849H11.6062C11.5683 36.7849 11.5403 36.776 11.5251 36.7566C11.5099 36.7371 11.4978 36.6972 11.4895 36.6354L11.4434 35.215C11.4434 35.1465 11.4522 35.0992 11.4725 35.0771C11.4922 35.0549 11.5245 35.0351 11.5715 35.0195L11.8492 34.9854C12.1613 34.7175 12.3743 34.4259 12.4904 34.1081C12.6059 33.7908 12.6914 33.4189 12.7467 32.9908L13.1062 30.0665C13.1227 29.9599 13.1544 29.8795 13.2026 29.8253C13.2496 29.7721 13.3694 29.7458 13.5609 29.7458H16.5665C16.6374 29.7458 16.6731 29.7809 16.6731 29.8491V34.997L16.961 35.0195C17.0478 35.0274 17.0916 35.0843 17.0916 35.1917L17.02 36.6014C17.0123 36.686 16.9978 36.7371 16.9787 36.7566C16.9579 36.776 16.9285 36.7849 16.8887 36.7849H16.7821C16.7408 36.7849 16.7137 36.7785 16.6977 36.7617C16.6813 36.7474 16.6704 36.7049 16.6623 36.6354L16.6015 35.3416H11.9089ZM16.2677 30.0787H13.4969L13.1512 32.8653C13.0873 33.3542 13.0022 33.7751 12.895 34.125C12.7866 34.477 12.6059 34.7706 12.3508 35.0085H16.2677V30.0787Z" fill="black"/>
<path d="M22.2521 34.6524C22.0529 34.7671 21.857 34.8722 21.6668 34.9678C21.4758 35.0637 21.2735 35.1464 21.0642 35.215C20.8524 35.2832 20.6272 35.3391 20.3888 35.3812C20.1496 35.4232 19.8827 35.4448 19.5884 35.4448C19.0943 35.4448 18.7321 35.3216 18.5013 35.0752C18.2705 34.8299 18.1562 34.4625 18.1562 33.9717C18.1562 33.3116 18.3186 32.8364 18.6453 32.5457C18.9719 32.254 19.485 32.1073 20.1865 32.1073H22.2521V31.443C22.2521 31.2065 22.2293 30.9955 22.1856 30.8128C22.1417 30.6281 22.0605 30.4781 21.9412 30.3596C21.8221 30.2405 21.6528 30.1517 21.4339 30.0901C21.2144 30.0287 20.9341 29.9985 20.5916 29.9985C20.2886 29.9985 19.9905 30.011 19.6962 30.0384C19.4012 30.0656 19.1026 30.0938 18.8001 30.1239C18.7443 30.1239 18.7131 30.1061 18.7056 30.0665L18.6801 29.9425C18.6801 29.9051 18.7005 29.8795 18.741 29.8647C18.8761 29.8199 19.027 29.7815 19.1945 29.7473C19.362 29.7151 19.5288 29.6887 19.6962 29.6707C19.863 29.6515 20.0202 29.6389 20.1681 29.6311C20.3152 29.6249 20.4439 29.6201 20.5562 29.6201C20.962 29.6201 21.3 29.653 21.5708 29.7181C21.8411 29.783 22.0579 29.8898 22.2216 30.0384C22.3847 30.1881 22.4988 30.3825 22.5622 30.6224C22.625 30.8644 22.6566 31.1602 22.6566 31.5122V34.6305C22.6566 34.8292 22.6955 34.9507 22.7714 34.997C22.8456 35.0426 22.9953 35.07 23.2192 35.0771C23.2675 35.0771 23.2903 35.0992 23.2903 35.1464V35.2953C23.2903 35.3483 23.2503 35.3793 23.1717 35.3854C22.812 35.4102 22.5697 35.3707 22.4429 35.2718C22.3149 35.1738 22.2521 34.9672 22.2521 34.6524ZM22.2521 32.4867H20.1376C19.9144 32.4867 19.7095 32.5056 19.523 32.5433C19.3347 32.5813 19.1717 32.6541 19.0334 32.7613C18.8939 32.8678 18.7861 33.0158 18.7113 33.2023C18.6352 33.3895 18.597 33.6328 18.597 33.9308C18.597 34.3738 18.6872 34.6755 18.866 34.8369C19.0455 34.997 19.3652 35.0771 19.8269 35.0771C20.0342 35.0771 20.2637 35.0448 20.5137 34.9797C20.7648 34.915 21.0058 34.8387 21.2373 34.7498C21.4675 34.662 21.6736 34.575 21.857 34.4862C22.0403 34.3985 22.1716 34.3351 22.2521 34.2974V32.4867Z" fill="black"/>
<path d="M26.107 30.0787V35.2718C26.107 35.3181 26.0797 35.3416 26.0244 35.3416H25.7962C25.7333 35.3416 25.7017 35.3181 25.7017 35.2718V30.0787H23.7787C23.7153 30.0787 23.6836 30.0555 23.6836 30.0099V29.815C23.6836 29.769 23.7153 29.7458 23.7787 29.7458H28.0774C28.118 29.7458 28.1377 29.769 28.1377 29.815V30.0099C28.1377 30.0555 28.118 30.0787 28.0774 30.0787H26.107Z" fill="black"/>
<path d="M28.7109 32.5092C28.7109 32.1655 28.7368 31.8236 28.7889 31.4827C28.839 31.142 28.9475 30.8354 29.111 30.5602C29.2734 30.2853 29.5024 30.0637 29.7973 29.8954C30.0923 29.7273 30.4829 29.6433 30.9681 29.6433C31.4457 29.6433 31.8337 29.7113 32.1324 29.8491C32.4306 29.9874 32.6614 30.1724 32.8251 30.405C32.9881 30.6379 33.0997 30.9065 33.1594 31.208C33.2182 31.5101 33.2488 31.8213 33.2488 32.1417C33.2488 32.3101 33.2221 32.4325 33.1701 32.5092C33.1187 32.5865 33.0172 32.6234 32.8662 32.6234H29.1523C29.1523 32.9446 29.1732 33.252 29.2126 33.5467C29.2526 33.8408 29.3344 34.1008 29.4579 34.3267C29.581 34.5519 29.7637 34.7297 30.0035 34.8591C30.2425 34.9894 30.5628 35.0549 30.9624 35.0549C31.2806 35.0549 31.5864 35.0405 31.8775 35.0141C32.1693 34.9873 32.4755 34.9581 32.794 34.9276C32.8587 34.9276 32.8935 34.9474 32.9018 34.9855L32.9145 35.0896C32.9303 35.1422 32.9145 35.1739 32.8662 35.1803C32.7477 35.226 32.6037 35.2643 32.4369 35.2954C32.2695 35.3258 32.0956 35.3529 31.9174 35.3755C31.7374 35.3983 31.5611 35.4135 31.3854 35.4207C31.2104 35.4281 31.0588 35.433 30.9313 35.433C30.4303 35.433 30.032 35.3529 29.7383 35.1918C29.4434 35.0305 29.2201 34.8177 29.0693 34.5507C28.9177 34.2822 28.8194 33.9718 28.7763 33.6155C28.7325 33.2605 28.7109 32.892 28.7109 32.5092ZM30.9624 30.0214C30.5939 30.0214 30.2946 30.0787 30.0629 30.1931C29.8321 30.3076 29.6489 30.4671 29.5176 30.6687C29.387 30.8711 29.2925 31.1097 29.2366 31.3859C29.1803 31.6607 29.1492 31.9631 29.1409 32.2913H32.8073C32.7977 32.0005 32.7768 31.719 32.7406 31.4495C32.7051 31.1777 32.6259 30.9347 32.501 30.7207C32.3772 30.5061 32.194 30.3356 31.9498 30.2107C31.7063 30.0841 31.3771 30.0214 30.9624 30.0214Z" fill="black"/>
<path d="M38.8871 29.7458C38.9341 29.7458 38.9563 29.769 38.9563 29.815V35.2718C38.9563 35.3181 38.9341 35.3416 38.8871 35.3416H38.643C38.5814 35.3416 38.5504 35.3181 38.5504 35.2718V30.0787H35.8639L35.6 33.4033C35.5778 33.6554 35.5455 33.9041 35.5055 34.1488C35.4662 34.3936 35.3831 34.6128 35.2607 34.8088C35.137 35.0018 34.9613 35.1571 34.7356 35.2718C34.508 35.3854 34.1997 35.4357 33.8095 35.4207C33.7532 35.4207 33.7266 35.394 33.7266 35.3416V35.1803C33.7266 35.1345 33.7386 35.1084 33.762 35.0992C33.7855 35.0932 33.8179 35.0896 33.8578 35.0896C34.128 35.0725 34.3449 35.0274 34.5079 34.9507C34.6715 34.8746 34.8009 34.7602 34.8974 34.6074C34.9918 34.4542 35.0616 34.2633 35.106 34.0337C35.1491 33.8043 35.1833 33.529 35.2075 33.2082L35.4452 30.2052C35.4617 30.0287 35.5024 29.9094 35.5721 29.8436C35.6399 29.7787 35.7637 29.7458 35.9482 29.7458H38.8871Z" fill="black"/>
<path d="M42.827 32.1189C43.1696 32.1189 43.4555 32.167 43.6871 32.2632C43.918 32.3575 44.1032 32.4845 44.242 32.6407C44.3815 32.7975 44.4817 32.9737 44.5407 33.168C44.601 33.3628 44.6308 33.5606 44.6308 33.7586C44.6308 34.2706 44.4569 34.662 44.1114 34.9336C43.7644 35.2052 43.3046 35.3416 42.7313 35.3416H40.379C40.315 35.3416 40.2832 35.3141 40.2832 35.26V29.8253C40.2832 29.7721 40.315 29.7458 40.379 29.7458H40.5947C40.6581 29.7458 40.6891 29.7721 40.6891 29.8253V32.1189H42.827ZM42.6355 35.0085C43.0973 35.0085 43.4784 34.9086 43.7771 34.7096C44.0739 34.5111 44.2236 34.1979 44.2236 33.7695C44.2236 33.4717 44.1685 33.2368 44.0575 33.0651C43.9452 32.8925 43.8158 32.7637 43.6687 32.676C43.5222 32.5876 43.37 32.5317 43.2152 32.5091C43.0605 32.4867 42.9343 32.4751 42.8385 32.4751H40.6891V35.0085H42.6355Z" fill="black"/>
<path d="M49.3822 35.1224C49.3897 35.1682 49.3707 35.1991 49.3232 35.215C49.204 35.2533 49.0638 35.2875 48.9046 35.3182C48.7449 35.3483 48.5805 35.3733 48.4099 35.3928C48.2381 35.4117 48.0751 35.4257 47.9191 35.433C47.7643 35.439 47.6349 35.4448 47.5322 35.4448C47.0615 35.4448 46.6893 35.3733 46.4147 35.2314C46.1401 35.0896 45.9263 34.8899 45.7722 34.6305C45.618 34.3711 45.5186 34.0605 45.4741 33.7007C45.4285 33.3421 45.4062 32.9446 45.4062 32.5092C45.4062 32.1189 45.4303 31.7508 45.4798 31.4036C45.5281 31.0553 45.6295 30.7514 45.7835 30.4914C45.9385 30.2322 46.1584 30.0251 46.4452 29.8716C46.7324 29.7194 47.113 29.6433 47.5917 29.6433C47.6939 29.6433 47.8219 29.6463 47.9735 29.6549C48.1239 29.6628 48.2799 29.6768 48.4398 29.697C48.5995 29.7152 48.7556 29.7413 48.9103 29.7721C49.0663 29.8038 49.204 29.8393 49.3232 29.8789C49.3707 29.8955 49.3897 29.9271 49.3822 29.9733L49.3587 30.0902C49.3422 30.1359 49.3073 30.1547 49.2522 30.1475C48.9332 30.1085 48.6433 30.0787 48.3858 30.0555C48.1264 30.033 47.8746 30.0214 47.6266 30.0214C47.2931 30.0214 47.0121 30.0646 46.785 30.153C46.5593 30.2405 46.376 30.3837 46.2358 30.5818C46.0963 30.7801 45.9974 31.0378 45.9377 31.3542C45.8768 31.6699 45.8477 32.0537 45.8477 32.5044C45.8477 32.9762 45.875 33.3739 45.9301 33.6996C45.9872 34.0229 46.0829 34.2858 46.218 34.4881C46.3531 34.6901 46.5345 34.8374 46.7616 34.9276C46.9886 35.0195 47.2765 35.0652 47.6266 35.0652C47.8746 35.0652 48.1544 35.0549 48.4696 35.0305C48.7835 35.0085 49.0479 34.9818 49.2635 34.9507C49.3029 34.9434 49.3276 34.9459 49.3346 34.9556C49.3422 34.9678 49.3511 34.9855 49.3587 35.0085L49.3822 35.1224Z" fill="black"/>
<path d="M51.8176 32.2913C51.9216 32.2913 52.037 32.2806 52.1646 32.2565C52.2926 32.234 52.4164 32.1883 52.5343 32.1189C52.6535 32.0508 52.7696 31.9515 52.8812 31.8213C52.9922 31.6914 53.0835 31.5228 53.1565 31.3164L53.6689 29.8716C53.6923 29.796 53.7367 29.7577 53.8014 29.7577H53.9683C54.0545 29.7577 54.083 29.796 54.0519 29.8716L53.5382 31.3396C53.426 31.6538 53.3011 31.8997 53.1609 32.0794C53.0226 32.258 52.8375 32.3765 52.6065 32.4288C52.8926 32.4824 53.1076 32.5969 53.2509 32.7734C53.3942 32.9488 53.5351 33.2239 53.6689 33.5985L54.2301 35.215C54.2549 35.299 54.2301 35.3416 54.1592 35.3416H53.9556C53.9245 35.3416 53.8978 35.3374 53.8782 35.3295C53.8585 35.3216 53.8395 35.2953 53.8249 35.2488L53.2623 33.6328C53.1919 33.4264 53.112 33.2581 53.0246 33.1289C52.9364 32.9984 52.8393 32.8967 52.7315 32.824C52.625 32.7515 52.4994 32.7034 52.3561 32.6815C52.212 32.6578 52.0529 32.647 51.8778 32.647H50.5524V35.2488C50.5524 35.3106 50.5245 35.3416 50.4686 35.3416H50.2174C50.1706 35.3416 50.1465 35.3106 50.1465 35.2488V29.8253C50.1465 29.7721 50.1706 29.7458 50.2174 29.7458H50.4686C50.5245 29.7458 50.5524 29.7721 50.5524 29.8253V32.2913H51.8176Z" fill="black"/>
<path d="M55.0801 29.8253C55.0801 29.7721 55.1111 29.7458 55.1752 29.7458H55.4252C55.4664 29.7458 55.486 29.7721 55.486 29.8253V34.7217L57.2168 32.3491L59.0445 29.8491C59.1169 29.7809 59.1676 29.7458 59.2001 29.7458H59.4632C59.5183 29.7458 59.5462 29.7721 59.5462 29.8253V35.26C59.5462 35.3141 59.5145 35.3416 59.4505 35.3416H59.2001C59.1594 35.3416 59.1404 35.3141 59.1404 35.26V30.32L57.6118 32.4179L55.5101 35.2953C55.5025 35.3031 55.4904 35.3124 55.474 35.3233C55.4582 35.3354 55.4383 35.3416 55.4143 35.3416H55.1639C55.1073 35.3416 55.0801 35.3141 55.0801 35.26V29.8253Z" fill="black"/>
<path d="M60.7383 29.8252C60.7383 29.772 60.77 29.7457 60.8341 29.7457H61.0846C61.1252 29.7457 61.1448 29.772 61.1448 29.8252V34.7216L62.8763 32.349L64.7034 29.849C64.7756 29.7808 64.8264 29.7457 64.8587 29.7457H65.1213C65.1772 29.7457 65.2058 29.772 65.2058 29.8252V35.2599C65.2058 35.314 65.1733 35.3415 65.1093 35.3415H64.8587C64.8176 35.3415 64.7986 35.314 64.7986 35.2599V30.3199L63.2701 32.4178L61.1689 35.2952C61.1607 35.303 61.148 35.3123 61.1328 35.3232C61.1169 35.3353 61.0972 35.3415 61.0732 35.3415H60.8226C60.7661 35.3415 60.7383 35.314 60.7383 35.2599V29.8252ZM63.0317 29.0241C62.7525 29.0241 62.4804 28.961 62.2128 28.8346C61.947 28.7085 61.7385 28.5003 61.5863 28.2097C61.571 28.1716 61.5527 28.1296 61.5324 28.0833C61.5133 28.0383 61.5229 27.9999 61.5628 27.9688L61.6821 27.8884C61.746 27.8434 61.7974 27.8547 61.8374 27.9226C62.0283 28.1981 62.2128 28.3883 62.3917 28.4906C62.5724 28.5938 62.7881 28.6453 63.043 28.6453C63.2505 28.6453 63.4477 28.5899 63.634 28.4797C63.8218 28.3676 64.0147 28.1792 64.2137 27.9121C64.253 27.8579 64.3051 27.8465 64.3691 27.8768L64.4757 27.9457C64.517 27.9761 64.5258 28.0114 64.5068 28.0486C64.4865 28.0875 64.4644 28.1332 64.4402 28.1864C64.2734 28.4851 64.064 28.6988 63.8136 28.8291C63.5624 28.9588 63.3031 29.0241 63.0317 29.0241Z" fill="black"/>
<path d="M69.2539 35.3416L69.1842 36.6354C69.1765 36.7358 69.1372 36.7849 69.0681 36.7849H68.9513C68.9127 36.7849 68.8854 36.776 68.8696 36.7566C68.8537 36.7371 68.8429 36.6972 68.8341 36.6354L68.7891 35.215C68.7891 35.1465 68.7966 35.0992 68.8163 35.0771C68.8372 35.0549 68.8691 35.0351 68.9159 35.0195L69.1943 34.9854C69.5051 34.7175 69.7194 34.4259 69.8348 34.1081C69.9509 33.7908 70.036 33.4189 70.0924 32.9908L70.4506 30.0665C70.4678 29.9599 70.4983 29.8795 70.5471 29.8253C70.5947 29.7721 70.7146 29.7458 70.9061 29.7458H73.9116C73.9834 29.7458 74.0181 29.7809 74.0181 29.8491V34.997L74.3054 35.0195C74.393 35.0274 74.4366 35.0843 74.4366 35.1917L74.3644 36.6014C74.3568 36.686 74.3422 36.7371 74.3232 36.7566C74.3029 36.776 74.2738 36.7849 74.2338 36.7849H74.1272C74.0859 36.7849 74.0594 36.7785 74.0429 36.7617C74.0265 36.7474 74.0143 36.7049 74.0074 36.6354L73.9465 35.3416H69.2539ZM73.6135 30.0787H70.8414L70.4964 32.8653C70.4317 33.3542 70.3467 33.7751 70.2388 34.125C70.1317 34.477 69.9509 34.7706 69.6959 35.0085H73.6135V30.0787Z" fill="black"/>
<path d="M77.7692 35.433C77.2351 35.433 76.8172 35.3429 76.5154 35.1632C76.2129 34.9831 75.9858 34.7522 75.8349 34.4692C75.6833 34.1867 75.5894 33.8669 75.5533 33.5123C75.5172 33.157 75.5 32.7994 75.5 32.4404C75.5 32.1572 75.5241 31.8517 75.5716 31.5229C75.6199 31.195 75.7213 30.8909 75.8761 30.6114C76.0315 30.3322 76.2573 30.1019 76.5572 29.9179C76.8552 29.7344 77.2593 29.6433 77.7692 29.6433C78.2873 29.6433 78.7009 29.7231 79.0111 29.8839C79.3218 30.044 79.5583 30.2565 79.7219 30.5201C79.8837 30.7838 79.9921 31.0819 80.0435 31.4139C80.0948 31.7462 80.1221 32.0884 80.1221 32.4404C80.1221 32.7838 80.1005 33.1345 80.0619 33.4892C80.0219 33.8444 79.925 34.1653 79.7689 34.4524C79.6135 34.7392 79.3801 34.9738 79.0643 35.1572C78.7504 35.3417 78.3184 35.433 77.7692 35.433ZM77.7692 30.0214C77.3791 30.0214 77.0646 30.0863 76.8255 30.2157C76.587 30.3465 76.4011 30.5237 76.2699 30.749C76.1386 30.9753 76.0506 31.2404 76.0086 31.5454C75.9642 31.8517 75.9422 32.1816 75.9422 32.5317C75.9422 32.892 75.9642 33.2256 76.0086 33.5355C76.0506 33.8444 76.1386 34.1142 76.2699 34.3431C76.4011 34.573 76.587 34.7522 76.8255 34.8822C77.0646 35.0123 77.3791 35.0772 77.7692 35.0772C78.1676 35.0772 78.4923 35.0141 78.7414 34.8877C78.9939 34.762 79.1879 34.5864 79.3274 34.3613C79.4664 34.1349 79.5603 33.8669 79.6077 33.5583C79.656 33.2484 79.6794 32.9069 79.6794 32.5317C79.6794 32.1572 79.656 31.8157 79.6077 31.5058C79.5603 31.1965 79.4683 30.9329 79.3331 30.7142C79.1981 30.497 79.0046 30.3271 78.7536 30.2052C78.5042 30.0829 78.175 30.0214 77.7692 30.0214Z" fill="black"/>
<path d="M86.6898 35.3416H86.4387C86.3752 35.3416 86.3423 35.3141 86.3423 35.26V30.4683L84.1821 34.3318C84.1733 34.3467 84.1618 34.3626 84.146 34.3781C84.1288 34.3936 84.1098 34.4008 84.0863 34.4008H83.8594C83.7869 34.4008 83.7394 34.3781 83.716 34.3318C83.5238 34.0106 83.3456 33.6915 83.1775 33.3738C83.0114 33.0577 82.8483 32.7387 82.6886 32.4179C82.5294 32.0969 82.3664 31.7737 82.1988 31.4495C82.0322 31.1237 81.854 30.8014 81.6617 30.4796V35.26C81.6617 35.3141 81.6331 35.3416 81.578 35.3416H81.3516C81.2869 35.3416 81.2559 35.3141 81.2559 35.26V29.8253C81.2559 29.7721 81.2838 29.7458 81.3389 29.7458H81.6142C81.6687 29.7458 81.7094 29.7651 81.7334 29.8028L83.9671 33.9659L86.2484 29.8253C86.2713 29.7721 86.3239 29.7458 86.4025 29.7458H86.6423C86.7126 29.7458 86.7488 29.7773 86.7488 29.8375V35.26C86.7488 35.3141 86.7291 35.3416 86.6898 35.3416Z" fill="black"/>
<path d="M88.1361 26.4198H0.863281V26.0618H88.1361V26.4198Z" fill="black"/>
<path d="M88.1361 39.1834H0.863281V38.8247H88.1361V39.1834Z" fill="black"/>
</g>
</svg>
