<svg width="339" height="87" viewBox="0 0 339 87" fill="none" xmlns="http://www.w3.org/2000/svg">
<path d="M83.3705 54.459H87.064L71.1782 87.0001H67.4873L83.3705 54.459Z" fill="#DC000B"/>
<path d="M0.716309 15.4922H1.41217L5.43439 21.4164L9.45347 15.4922H10.1556V25.5008H9.4092V16.807L5.44758 22.5698H5.39106L1.43069 16.807V25.5008H0.716309V15.4922Z" fill="#FEFEFE"/>
<path d="M13.8086 15.4922H20.9295V16.1767H14.5519V20.1082H20.2892V20.794H14.5519V24.8184H21.0005V25.5008H13.8086V15.4922Z" fill="#FEFEFE"/>
<path d="M27.1628 19.7939L23.2269 15.4922H24.1784L29.9136 21.8651V15.4922H30.6556V21.8651L36.3873 15.4922H37.3344L33.3985 19.7939L37.6158 25.5011H36.6932L32.8889 20.3544L30.6556 22.799V25.5011H29.9136V22.799L27.6624 20.3544L23.8751 25.5011H22.9443L27.1628 19.7939Z" fill="#FEFEFE"/>
<path d="M46.8724 24.8184V16.1767H42.2021V18.1484C42.2021 20.8239 41.6638 23.4547 40.7299 24.8184H46.8724ZM38.8057 24.8184H39.8714C40.907 23.3674 41.4767 20.724 41.4767 17.609V15.4922H47.6091V24.8184H48.9728L48.8265 27.7862H48.1941V25.5008H39.5744L39.4315 27.7862H38.8057V24.8184Z" fill="#FEFEFE"/>
<path d="M51.3964 25.3303L51.6834 24.6878C52.102 24.886 52.4132 24.9745 53.0004 24.9745C53.7836 24.9745 54.6157 24.5192 55.2613 23.2264L50.7417 15.4922H51.6124L55.6303 22.4567L59.0622 15.4922H59.883L55.8985 23.4713C55.1018 25.0766 54.0307 25.6726 53.0004 25.6726C52.3268 25.6726 51.8969 25.5617 51.3964 25.3303Z" fill="#FEFEFE"/>
<path d="M62.7095 15.4922H63.4496V20.1261H69.858V15.4922H70.6035V25.5008H69.858V20.8063H63.4496V25.5008H62.7095V15.4922Z" fill="#FEFEFE"/>
<path d="M81.0377 22.0263L78.4091 16.2336L75.7582 22.0263H81.0377ZM78.0602 15.4185H78.7802L83.4396 25.5015H82.6276L81.3545 22.6986H75.4479L74.1708 25.5015H73.4043L78.0602 15.4185Z" fill="#FEFEFE"/>
<path d="M89.7528 21.0829C91.6149 21.0829 92.8769 20.1082 92.8769 18.5972C92.8769 17.0076 91.645 16.1767 89.847 16.1767H87.0155V21.0829H89.7528ZM86.27 15.4944H89.9022C92.1079 15.4944 93.6211 16.622 93.6211 18.5827C93.6211 20.681 91.8023 21.7687 89.7129 21.7687H87.0155V25.5008H86.27V15.4944Z" fill="#FEFEFE"/>
<path d="M105.382 20.4956C105.382 18.0243 103.588 15.9905 101.113 15.9905C98.6329 15.9905 96.8625 17.9911 96.8625 20.4956C96.8625 22.9717 98.6662 25.0021 101.137 25.0021C103.613 25.0021 105.382 22.9983 105.382 20.4956ZM96.0859 20.4956C96.0859 17.7618 98.1123 15.3213 101.137 15.3213C104.172 15.3213 106.16 17.7364 106.16 20.4956C106.16 23.2298 104.145 25.6725 101.113 25.6725C98.0812 25.6725 96.0859 23.2574 96.0859 20.4956Z" fill="#FEFEFE"/>
<path d="M115.697 24.8184V16.1767H111.033V18.1484C111.033 20.8239 110.49 23.4547 109.559 24.8184H115.697ZM107.633 24.8184H108.703C109.731 23.3674 110.304 20.724 110.304 17.609V15.4922H116.441V24.8184H117.8L117.652 27.7862H117.026V25.5008H108.405L108.26 27.7862H107.633V24.8184Z" fill="#FEFEFE"/>
<path d="M120.425 15.4922H121.167V20.1261H127.574V15.4922H128.325V25.5008H127.574V20.8063H121.167V25.5008H120.425V15.4922Z" fill="#FEFEFE"/>
<path d="M140.714 15.4922H141.458V25.5008H140.714V15.4922ZM135.633 24.8184C137.444 24.8184 138.573 24.0275 138.573 22.409C138.573 20.9269 137.414 20.198 135.555 20.198H132.735V24.8184H135.633ZM131.994 15.4922H132.735V19.5078H135.705C137.598 19.5078 139.342 20.3221 139.342 22.3848C139.342 24.3145 137.902 25.5008 135.771 25.5008H131.994V15.4922Z" fill="#FEFEFE"/>
<path d="M147.236 13.0134L147.823 12.8916C147.989 13.5331 148.421 13.9319 149.164 13.9319C149.91 13.9319 150.337 13.5331 150.507 12.8916L151.094 13.0134C150.924 13.9464 150.179 14.6608 149.164 14.6608C148.152 14.6608 147.411 13.9464 147.236 13.0134ZM145.163 15.4916H145.9V24.4279L152.411 15.4916H153.137V25.5002H152.397V16.5596L145.9 25.5002H145.163V15.4916Z" fill="#FEFEFE"/>
<path d="M3.48839 35.6596H0V34.9763H7.72226V35.6596H4.22947V44.9827H3.48839V35.6596Z" fill="#FEFEFE"/>
<path d="M14.1546 40.5663C16.0133 40.5663 17.2719 39.5951 17.2719 38.0762C17.2719 36.4888 16.0422 35.6589 14.242 35.6589H11.4083V40.5663H14.1546ZM10.6641 34.9756H14.2953C16.5019 34.9756 18.0164 36.1076 18.0164 38.0652C18.0164 40.1697 16.1973 41.2543 14.1126 41.2543H11.4083V44.982H10.6641V34.9756Z" fill="#FEFEFE"/>
<path d="M27.6911 41.5065L25.0634 35.7195L22.4159 41.5065H27.6911ZM24.718 34.9043H25.4346L30.0961 44.9892H29.2832L28.0101 42.1822H22.1022L20.8251 44.9892H20.0552L24.718 34.9043Z" fill="#FEFEFE"/>
<path d="M32.897 34.9756H33.6415V39.6083H40.0477V34.9756H40.791V44.9823H40.0477V40.2919H33.6415V44.9823H32.897V34.9756Z" fill="#FEFEFE"/>
<path d="M44.0005 39.9769C44.0005 37.1476 46.1229 34.8022 49.0109 34.8022C50.7958 34.8022 51.8301 35.5081 52.8573 36.4452L52.3709 36.947C51.4979 36.1051 50.5009 35.4758 48.9987 35.4758C46.5949 35.4758 44.7783 37.4356 44.7783 39.9769C44.7783 42.5091 46.6203 44.4821 49.0109 44.4821C50.4544 44.4821 51.4426 43.926 52.4572 42.929L52.9581 43.4154C51.8989 44.4567 50.7534 45.1578 48.9801 45.1578C46.1229 45.1578 44.0005 42.8859 44.0005 39.9769Z" fill="#FEFEFE"/>
<path d="M55.7021 34.9756H63.4555V44.9823H62.7091V35.6592H56.4445V44.9823H55.7021V34.9756Z" fill="#FEFEFE"/>
<path d="M75.9629 39.9769C75.9629 37.5075 74.1617 35.4758 71.6904 35.4758C69.2122 35.4758 67.4396 37.4764 67.4396 39.9769C67.4396 42.4526 69.2477 44.4821 71.7146 44.4821C74.1862 44.4821 75.9629 42.4771 75.9629 39.9769ZM66.6655 39.9769C66.6655 37.2472 68.6872 34.8022 71.7146 34.8022C74.7521 34.8022 76.7341 37.2195 76.7341 39.9769C76.7341 42.7085 74.7213 45.1578 71.6904 45.1578C68.6561 45.1578 66.6655 42.7428 66.6655 39.9769Z" fill="#FEFEFE"/>
<path d="M83.4539 40.5663C85.3164 40.5663 86.5746 39.5951 86.5746 38.0762C86.5746 36.4888 85.344 35.6589 83.5372 35.6589H80.7091V40.5663H83.4539ZM79.9668 34.9756H83.6003C85.8003 34.9756 87.317 36.1076 87.317 38.0652C87.317 40.1697 85.4979 41.2543 83.4141 41.2543H80.7091V44.982H79.9668V34.9756Z" fill="#FEFEFE"/>
<path d="M92.9753 35.6596H89.4834V34.9763H97.2079V35.6596H93.7173V44.9827H92.9753V35.6596Z" fill="#FEFEFE"/>
<path d="M100.137 34.9756H100.88V39.6083H107.29V34.9756H108.031V44.9823H107.29V40.2919H100.88V44.9823H100.137V34.9756Z" fill="#FEFEFE"/>
<path d="M120.553 39.9769C120.553 37.5075 118.753 35.4758 116.278 35.4758C113.806 35.4758 112.03 37.4764 112.03 39.9769C112.03 42.4526 113.836 44.4821 116.312 44.4821C118.778 44.4821 120.553 42.4771 120.553 39.9769ZM111.258 39.9769C111.258 37.2472 113.279 34.8022 116.312 34.8022C119.339 34.8022 121.326 37.2195 121.326 39.9769C121.326 42.7085 119.31 45.1578 116.278 45.1578C113.247 45.1578 111.258 42.7428 111.258 39.9769Z" fill="#FEFEFE"/>
<path d="M124.073 40.3396H127.901V41.1381H124.073V40.3396Z" fill="#FEFEFE"/>
<path d="M129.603 44.8443L129.834 44.2285C130.007 44.3136 130.416 44.3968 130.788 44.3968C131.567 44.3968 132.995 43.9116 132.995 36.8906V34.9763H139.126V44.9827H138.385V35.6596H133.715V36.9217C133.715 44.1676 132.245 45.088 130.804 45.088C130.43 45.088 129.87 44.9551 129.603 44.8443Z" fill="#FEFEFE"/>
<path d="M151.653 39.9769C151.653 37.5075 149.854 35.4758 147.377 35.4758C144.9 35.4758 143.13 37.4764 143.13 39.9769C143.13 42.4526 144.936 44.4821 147.411 44.4821C149.879 44.4821 151.653 42.4771 151.653 39.9769ZM142.357 39.9769C142.357 37.2472 144.377 34.8022 147.411 34.8022C150.435 34.8022 152.426 37.2195 152.426 39.9769C152.426 42.7085 150.409 45.1578 147.377 45.1578C144.347 45.1578 142.357 42.7428 142.357 39.9769Z" fill="#FEFEFE"/>
<path d="M155.656 34.9756H161.906V35.6592H156.396V44.9823H155.656V34.9756Z" fill="#FEFEFE"/>
<path d="M164.788 34.9756H165.53V43.9109L172.044 34.9756H172.769V44.9823H172.025V36.048L165.53 44.9823H164.788V34.9756Z" fill="#FEFEFE"/>
<path d="M175.997 39.9769C175.997 37.1476 178.117 34.8022 181.004 34.8022C182.793 34.8022 183.822 35.5081 184.855 36.4452L184.367 36.947C183.495 36.1051 182.493 35.4758 180.99 35.4758C178.586 35.4758 176.772 37.4356 176.772 39.9769C176.772 42.5091 178.621 44.4821 181.004 44.4821C182.448 44.4821 183.434 43.926 184.454 42.929L184.95 43.4154C183.893 44.4567 182.75 45.1578 180.974 45.1578C178.117 45.1578 175.997 42.8859 175.997 39.9769Z" fill="#FEFEFE"/>
<path d="M190.467 35.6596H186.985V34.9763H194.704V35.6596H191.216V44.9827H190.467V35.6596Z" fill="#FEFEFE"/>
<path d="M197.649 34.9756H198.387V43.9109L204.898 34.9756H205.627V44.9823H204.882V36.048L198.387 44.9823H197.649V34.9756Z" fill="#FEFEFE"/>
<path d="M215.452 40.5258C214.744 40.9133 213.245 41.5636 212.126 41.5636C210.198 41.5636 208.954 40.5943 208.954 38.6957V34.9756H209.701V38.7676C209.701 40.0516 210.584 40.8957 212.089 40.8957C213.202 40.8957 214.506 40.3694 215.452 39.8243V34.9756H216.19V44.9823H215.452V40.5258Z" fill="#FEFEFE"/>
<path d="M219.869 34.9756H226.993V35.6592H220.605V39.5951H226.345V40.2787H220.605V44.3009H227.063V44.9823H219.869V34.9756Z" fill="#FEFEFE"/>
<path d="M229.687 39.9769C229.687 37.1476 231.804 34.8022 234.695 34.8022C236.481 34.8022 237.511 35.5081 238.536 36.4452L238.053 36.947C237.18 36.1051 236.176 35.4758 234.68 35.4758C232.278 35.4758 230.457 37.4356 230.457 39.9769C230.457 42.5091 232.302 44.4821 234.695 44.4821C236.138 44.4821 237.121 43.926 238.14 42.929L238.64 43.4154C237.583 44.4567 236.436 45.1578 234.663 45.1578C231.804 45.1578 229.687 42.8859 229.687 39.9769Z" fill="#FEFEFE"/>
<path d="M241.384 34.9756H242.122V41.5536L248.506 34.9756H249.522L245.145 39.3913L249.707 44.9823H248.736L244.614 39.9198L242.122 42.4375V44.9823H241.384V34.9756Z" fill="#FEFEFE"/>
<path d="M252.291 34.9756H253.032V43.9109L259.54 34.9756H260.271V44.9823H259.53V36.048L253.032 44.9823H252.291V34.9756Z" fill="#FEFEFE"/>
<path d="M266.014 32.5008L266.604 32.3743C266.773 33.0158 267.201 33.4136 267.946 33.4136C268.694 33.4136 269.123 33.0158 269.293 32.3743L269.878 32.5008C269.704 33.4268 268.963 34.1425 267.946 34.1425C266.931 34.1425 266.191 33.4268 266.014 32.5008ZM263.937 34.9756H264.69V43.9087L271.199 34.9756H271.925V44.9832H271.182V36.0479L264.69 44.9832H263.937V34.9756Z" fill="#FEFEFE"/>
<path d="M287.305 43.5067C289.768 43.4659 291.141 42.0058 291.141 39.9C291.141 37.7995 289.768 36.3306 287.305 36.2831H286.84V43.5067H287.305ZM286.09 43.5067V36.2831H285.62C283.165 36.3306 281.788 37.7995 281.788 39.9C281.788 42.0058 283.165 43.4659 285.62 43.5067H286.09ZM286.09 44.1794H285.62C282.688 44.1794 281.012 42.2451 281.012 39.9C281.012 37.5593 282.688 35.6118 285.62 35.6118H286.09V34.5959H286.84V35.6118H287.305C290.236 35.6118 291.909 37.5593 291.909 39.9C291.909 42.2451 290.236 44.1794 287.305 44.1794H286.84V45.2913H286.09V44.1794Z" fill="#FEFEFE"/>
<path d="M303.647 39.9148C303.647 37.4447 301.849 35.414 299.375 35.414C296.898 35.414 295.125 37.4159 295.125 39.9148C295.125 42.3886 296.93 44.4237 299.398 44.4237C301.872 44.4237 303.647 42.4228 303.647 39.9148ZM294.348 39.9148C294.348 37.1841 296.371 34.7439 299.398 34.7439C302.43 34.7439 304.422 37.1511 304.422 39.9148C304.422 42.6455 302.406 45.0926 299.375 45.0926C296.339 45.0926 294.348 42.6766 294.348 39.9148Z" fill="#FEFEFE"/>
<path d="M311.138 40.5017C312.997 40.5017 314.26 39.5279 314.26 38.0125C314.26 36.4273 313.028 35.5986 311.22 35.5986H308.393V40.5017H311.138ZM307.647 34.9141H311.282C313.478 34.9141 315.003 36.0404 315.003 38.0002C315.003 40.1038 313.189 41.1884 311.097 41.1884H308.393V44.9239H307.647V34.9141Z" fill="#FEFEFE"/>
<path d="M317.686 44.7465L317.972 44.1063C318.389 44.3057 318.703 44.3889 319.286 44.3889C320.075 44.3889 320.909 43.9357 321.548 42.6439L317.027 34.9141H317.903L321.919 41.8774L325.352 34.9141H326.167L322.194 42.8923C321.392 44.4928 320.321 45.0922 319.286 45.0922C318.617 45.0922 318.189 44.9757 317.686 44.7465Z" fill="#FEFEFE"/>
<path d="M328.982 34.9141H329.685L333.699 40.8329L337.722 34.9141H338.426V44.9239H337.679V36.2254L333.713 41.9895H333.662L329.701 36.2254V44.9239H328.982V34.9141Z" fill="#FEFEFE"/>
<path d="M8.25427 68.9908C11.8654 68.9908 13.3598 67.5963 13.3598 64.9064C13.3598 62.3607 11.8654 60.9206 8.25427 60.9206H4.61295V68.9908H8.25427ZM4.61295 72.3951V80.9714H0.663574V57.4856H8.66624C14.0755 57.4856 17.3114 60.0687 17.3114 64.9064C17.3114 69.6766 14.1132 72.3951 8.66624 72.3951H4.61295Z" fill="#FEFEFE"/>
<path d="M28.4425 68.0369C31.778 68.0369 33.4118 67.1495 33.4118 64.4964C33.4118 61.8411 31.778 60.9204 28.4425 60.9204H24.6671V68.0369H28.4425ZM33.7553 80.9735L29.2269 71.4456H24.6671V80.9735H20.7158V57.4863H28.7182C34.1321 57.4863 37.3677 59.8314 37.3677 64.4964C37.3677 67.7311 35.8325 69.808 33.1094 70.7962L38.111 80.9735H33.7553Z" fill="#FEFEFE"/>
<path d="M44.4508 70.7301C44.4508 75.798 46.1455 77.8441 49.2841 77.8441C52.4136 77.8441 54.1451 75.798 54.1451 70.7301V67.7312C54.1451 62.6608 52.4136 60.6169 49.2841 60.6169C46.1455 60.6169 44.4508 62.6608 44.4508 67.7312V70.7301ZM49.2841 81.2817C44.0366 81.2817 40.5005 78.1132 40.5005 70.7301V67.7312C40.5005 60.3456 44.0366 57.1797 49.2841 57.1797C54.5593 57.1797 58.0963 60.3456 58.0963 67.7312V70.7301C58.0963 78.1132 54.5593 81.2817 49.2841 81.2817Z" fill="#FEFEFE"/>
<path d="M91.4945 77.5675H100.958V60.9254H93.8763V63.3747C93.8763 69.7388 93.3666 73.0422 92.4481 75.6665C92.2123 76.3787 91.8688 76.9903 91.4945 77.5675ZM85.6089 85.3994V77.5675H86.9359C87.6804 76.9238 88.3961 75.5258 88.8401 74.1633C89.5579 71.952 89.9304 68.8926 89.9304 63.3747V57.4856H104.906V77.5675H107.837V85.3994H104.163V80.9727H89.2866V85.3994H85.6089Z" fill="#FEFEFE"/>
<path d="M115.057 77.5675H119.174C122.339 77.5675 123.804 76.2735 123.804 74.0257C123.804 71.5435 122.175 70.4864 118.699 70.4864H115.057V77.5675ZM115.057 67.0813H118.905C121.829 67.0813 123.06 65.7574 123.06 63.8165C123.06 61.9776 122.141 60.8842 118.393 60.8842H115.057V67.0813ZM118.671 57.4856C124.181 57.4856 127.005 59.5308 127.005 63.5763C127.005 65.998 125.615 67.9408 123.572 68.6818C126.224 69.4298 127.755 71.2731 127.755 74.2321C127.755 77.7779 125.508 80.9727 119.416 80.9727H111.104V57.4856H118.671Z" fill="#FEFEFE"/>
<path d="M135.556 57.4863V73.5147L145.934 57.4863H149.169V80.9722H145.223V65.1087L134.872 80.9722H131.599V57.4863H135.556Z" fill="#FEFEFE"/>
<path d="M151.928 80.9725L159.044 69.0958L153.189 57.4863H157.406L162.343 67.4598H164.891V57.4863H168.848V67.4598H171.399L176.33 57.4863H180.557L174.7 69.0958L181.816 80.9725H177.291L171.27 70.8619H168.848V80.9725H164.891V70.8619H162.484L156.457 80.9725H151.928Z" fill="#FEFEFE"/>
<path d="M199.014 57.4863V60.9248H188.559V67.1238H197.989V70.5258H188.559V77.5679H199.014V80.9722H184.611V57.4863H199.014Z" fill="#FEFEFE"/>
<path d="M206.709 67.1141H215.696V57.4863H219.643V80.9735H215.696V70.5258H206.709V80.9735H202.757V57.4863H206.709V67.1141Z" fill="#FEFEFE"/>
<path d="M228.772 57.4863V73.5147L239.15 57.4863H242.385V80.9722H238.438V65.1087L228.086 80.9722H224.818V57.4863H228.772Z" fill="#FEFEFE"/>
<path d="M261.93 57.4863V60.9248H251.477V67.1238H260.907V70.5258H251.477V77.5679H261.93V80.9722H247.524V57.4863H261.93Z" fill="#FEFEFE"/>
<path d="M271.613 80.9716H266.918V76.2737H271.613V80.9716Z" fill="#DC000B"/>
<path d="M280.409 80.9725H276.461V61.7438L273.091 64.0568V60.0698L276.7 57.4863H280.409V80.9725Z" fill="#DC000B"/>
<path d="M292.632 70.2081H289.057V57.4863H301.789V61.1964H292.903V66.1657C293.616 65.4479 294.705 64.802 296.511 64.802C300.432 64.802 302.704 67.8319 302.704 73.2766C302.704 78.4177 300.258 81.278 295.563 81.278C291.75 81.278 288.754 78.894 288.407 75.1519H292.287C292.698 76.8548 293.786 77.844 295.489 77.844C297.504 77.844 298.762 76.5179 298.762 73.416C298.762 70.1814 297.809 68.4801 295.489 68.4801C294.095 68.4801 293.212 69.2277 292.632 70.2081Z" fill="#DC000B"/>
<path d="M320.108 80.9721H305.904V78.1792L313.98 68.7155C315.505 66.9476 316.362 65.4154 316.362 63.7848C316.362 61.64 314.762 60.5492 313.022 60.5492C311.187 60.5492 309.791 61.6711 309.684 63.7848H306.08C306.08 59.8055 309.281 57.1782 313.16 57.1782C317.179 57.1782 320.273 59.901 320.273 63.8501C320.273 66.8156 318.232 69.1287 316.734 70.9311L311.187 77.5679H320.108V80.9721Z" fill="#DC000B"/>
<path d="M331.032 60.6145C328.887 60.6145 327.556 62.0787 327.556 64.5959V73.8568C327.556 76.3768 328.887 77.8436 331.032 77.8436C333.145 77.8436 334.472 76.3768 334.472 73.8568V64.5959C334.472 62.0787 333.145 60.6145 331.032 60.6145ZM331.032 81.2811C327.119 81.2811 323.643 78.9659 323.643 74.0961V64.3943C323.643 59.3914 327.119 57.1782 331.032 57.1782C334.947 57.1782 338.425 59.3914 338.425 64.3619V74.0961C338.425 78.9659 334.947 81.2811 331.032 81.2811Z" fill="#DC000B"/>
<path d="M73.9409 54.459H77.6331L61.7486 87.0001H58.0542L73.9409 54.459Z" fill="#DC000B"/>
<path fill-rule="evenodd" clip-rule="evenodd" d="M160.249 25.7835L174.752 0H305.287L290.784 25.7835H160.249Z" fill="#FEFEFE"/>
<path d="M209.72 19.3511V4.64795H212.704L219.594 13.6998V4.64795H222.792V19.3511H220.035L212.918 10.0016V19.3511H209.72ZM226.317 19.3511V4.64795H229.557V16.4094H236.888V19.3511H226.317ZM239.472 19.3511V4.64795H242.706V19.3511H239.472Z" fill="#CC292B"/>
<path d="M246.464 19.3511V4.64795H249.448L256.338 13.6998V4.64795H259.536V19.3511H256.778L249.662 10.0016V19.3511H246.464ZM263.061 19.3511V4.64795H274.155V7.52432H266.277V10.5078H273.209V13.3842H266.277V16.4747H274.263V19.3511H263.061Z" fill="#CC292B"/>
<path d="M206.705 11.7039C206.705 16.0363 203.193 19.5484 198.861 19.5484C194.528 19.5484 191.016 16.0363 191.016 11.7039C191.016 7.37149 194.528 3.85938 198.861 3.85938C203.193 3.85938 206.705 7.37149 206.705 11.7039ZM194.48 11.7039C194.48 14.1234 196.441 16.0848 198.861 16.0848C201.28 16.0848 203.242 14.1234 203.242 11.7039C203.242 9.28441 201.28 7.32301 198.861 7.32301C196.441 7.32301 194.48 9.28441 194.48 11.7039Z" fill="#CC292B"/>
</svg>
