<svg width="296" height="56" viewBox="0 0 296 56" fill="none" xmlns="http://www.w3.org/2000/svg">
<path d="M16.1116 19.2397H49.9961L56.4062 30.3404V30.3777H9.80273L16.1116 19.2397Z" fill="#DC000B"/>
<path d="M5.7787 41.4708H5.79346L5.95687 41.1885L6.12507 40.8992H6.13843L6.30523 40.6141H60.0388L65.8526 30.5207L53.9215 9.85327H64.7082L76.6373 30.5207L64.5681 51.4486H64.5583H0L5.7787 41.4708Z" fill="#595959"/>
<path d="M133.943 34.6023H136.29L126.197 55.2783H123.852L133.943 34.6023Z" fill="#DC000B"/>
<path d="M81.4258 9.84351H81.8679L84.4236 13.6077L86.9772 9.84351H87.4234V16.2028H86.9491V10.6789L84.4319 14.3405H84.396L81.8797 10.6789V16.2028H81.4258V9.84351Z" fill="#595959"/>
<path d="M89.7441 9.84351H94.2687V10.2785H90.2164V12.7765H93.8618V13.2122H90.2164V15.7693H94.3137V16.2028H89.7441V9.84351Z" fill="#595959"/>
<path d="M98.2292 12.5767L95.7284 9.84351H96.3329L99.977 13.8928V9.84351H100.448V13.8928L104.09 9.84351H104.692L102.191 12.5767L104.871 16.203H104.285L101.867 12.9329L100.448 14.4861V16.203H99.977V14.4861L98.5466 12.9329L96.1402 16.203H95.5488L98.2292 12.5767Z" fill="#595959"/>
<path d="M110.752 15.7693V10.2785H107.785V11.5312C107.785 13.2312 107.443 14.9027 106.85 15.7693H110.752ZM105.627 15.7693H106.304C106.962 14.8473 107.324 13.1677 107.324 11.1885V9.84351H111.22V15.7693H112.087L111.994 17.6549H111.592V16.2028H106.115L106.025 17.6549H105.627V15.7693Z" fill="#595959"/>
<path d="M113.627 16.0945L113.809 15.6862C114.075 15.8121 114.273 15.8684 114.646 15.8684C115.144 15.8684 115.672 15.5791 116.083 14.7577L113.211 9.84351H113.764L116.317 14.2687L118.498 9.84351H119.019L116.487 14.9133C115.981 15.9332 115.301 16.312 114.646 16.312C114.218 16.312 113.945 16.2415 113.627 16.0945Z" fill="#595959"/>
<path d="M120.814 9.84351H121.285V12.7878H125.357V9.84351H125.83V16.2028H125.357V13.22H121.285V16.2028H120.814V9.84351Z" fill="#595959"/>
<path d="M132.46 13.9951L130.789 10.3146L129.105 13.9951H132.46ZM130.568 9.79663H131.025L133.986 16.2032H133.47L132.661 14.4223H128.908L128.096 16.2032H127.609L130.568 9.79663Z" fill="#595959"/>
<path d="M137.998 13.3958C139.181 13.3958 139.983 12.7765 139.983 11.8164C139.983 10.8064 139.2 10.2785 138.058 10.2785H136.259V13.3958H137.998ZM135.785 9.84497H138.093C139.494 9.84497 140.456 10.5614 140.456 11.8072C140.456 13.1404 139.3 13.8316 137.973 13.8316H136.259V16.2029H135.785V9.84497Z" fill="#595959"/>
<path d="M147.928 13.0226C147.928 11.4523 146.788 10.1601 145.216 10.1601C143.64 10.1601 142.515 11.4312 142.515 13.0226C142.515 14.5958 143.661 15.8859 145.231 15.8859C146.804 15.8859 147.928 14.6127 147.928 13.0226ZM142.021 13.0226C142.021 11.2855 143.309 9.73486 145.231 9.73486C147.159 9.73486 148.422 11.2694 148.422 13.0226C148.422 14.7598 147.142 16.3119 145.216 16.3119C143.289 16.3119 142.021 14.7773 142.021 13.0226Z" fill="#595959"/>
<path d="M154.483 15.7693V10.2785H151.519V11.5312C151.519 13.2312 151.175 14.9027 150.583 15.7693H154.483ZM149.359 15.7693H150.039C150.692 14.8473 151.056 13.1677 151.056 11.1885V9.84351H154.956V15.7693H155.819L155.725 17.6549H155.327V16.2028H149.85L149.758 17.6549H149.359V15.7693Z" fill="#595959"/>
<path d="M157.486 9.84351H157.958V12.7878H162.028V9.84351H162.505V16.2028H162.028V13.22H157.958V16.2028H157.486V9.84351Z" fill="#595959"/>
<path d="M170.377 9.84351H170.85V16.2028H170.377V9.84351ZM167.148 15.7693C168.299 15.7693 169.016 15.2667 169.016 14.2383C169.016 13.2966 168.28 12.8335 167.099 12.8335H165.307V15.7693H167.148ZM164.836 9.84351H165.307V12.395H167.194C168.397 12.395 169.505 12.9123 169.505 14.223C169.505 15.449 168.59 16.2028 167.236 16.2028H164.836V9.84351Z" fill="#595959"/>
<path d="M174.522 8.26857L174.895 8.19116C175.001 8.59878 175.275 8.85217 175.747 8.85217C176.221 8.85217 176.493 8.59878 176.601 8.19116L176.974 8.26857C176.865 8.86135 176.392 9.31526 175.747 9.31526C175.104 9.31526 174.633 8.86135 174.522 8.26857ZM173.205 9.84318H173.673V15.5211L177.81 9.84318H178.271V16.2025H177.801V10.5217L173.673 16.2025H173.205V9.84318Z" fill="#595959"/>
<path d="M83.1872 22.6576H80.9707V22.2234H85.8773V22.6576H83.658V28.5813H83.1872V22.6576Z" fill="#595959"/>
<path d="M89.964 25.7752C91.1449 25.7752 91.9446 25.158 91.9446 24.193C91.9446 23.1844 91.1633 22.6571 90.0194 22.6571H88.219V25.7752H89.964ZM87.7461 22.2229H90.0533C91.4554 22.2229 92.4176 22.9422 92.4176 24.186C92.4176 25.5232 91.2618 26.2123 89.9372 26.2123H88.219V28.5808H87.7461V22.2229Z" fill="#595959"/>
<path d="M98.5646 26.3724L96.895 22.6954L95.2129 26.3724H98.5646ZM96.6756 22.1775H97.1309L100.093 28.5853H99.5762L98.7673 26.8018H95.0136L94.2021 28.5853H93.7129L96.6756 22.1775Z" fill="#595959"/>
<path d="M101.873 22.2229H102.346V25.1664H106.417V22.2229H106.889V28.581H106.417V25.6008H102.346V28.581H101.873V22.2229Z" fill="#595959"/>
<path d="M108.928 25.4007C108.928 23.603 110.276 22.1128 112.111 22.1128C113.245 22.1128 113.903 22.5613 114.555 23.1567L114.246 23.4755C113.691 22.9406 113.058 22.5407 112.103 22.5407C110.576 22.5407 109.422 23.786 109.422 25.4007C109.422 27.0096 110.592 28.2632 112.111 28.2632C113.028 28.2632 113.656 27.9098 114.301 27.2764L114.619 27.5854C113.946 28.247 113.218 28.6926 112.092 28.6926C110.276 28.6926 108.928 27.249 108.928 25.4007Z" fill="#595959"/>
<path d="M116.363 22.2229H121.29V28.581H120.815V22.6573H116.835V28.581H116.363V22.2229Z" fill="#595959"/>
<path d="M129.236 25.4007C129.236 23.8317 128.091 22.5407 126.521 22.5407C124.946 22.5407 123.82 23.8119 123.82 25.4007C123.82 26.9737 124.969 28.2632 126.536 28.2632C128.107 28.2632 129.236 26.9893 129.236 25.4007ZM123.328 25.4007C123.328 23.6663 124.613 22.1128 126.536 22.1128C128.466 22.1128 129.726 23.6487 129.726 25.4007C129.726 27.1363 128.447 28.6926 126.521 28.6926C124.593 28.6926 123.328 27.1581 123.328 25.4007Z" fill="#595959"/>
<path d="M133.995 25.7752C135.178 25.7752 135.978 25.158 135.978 24.193C135.978 23.1844 135.196 22.6571 134.048 22.6571H132.251V25.7752H133.995ZM131.779 22.2229H134.088C135.486 22.2229 136.449 22.9422 136.449 24.186C136.449 25.5232 135.294 26.2123 133.97 26.2123H132.251V28.5808H131.779V22.2229Z" fill="#595959"/>
<path d="M140.045 22.6576H137.826V22.2234H142.734V22.6576H140.516V28.5813H140.045V22.6576Z" fill="#595959"/>
<path d="M144.596 22.2229H145.068V25.1664H149.141V22.2229H149.611V28.581H149.141V25.6008H145.068V28.581H144.596V22.2229Z" fill="#595959"/>
<path d="M157.568 25.4007C157.568 23.8317 156.424 22.5407 154.852 22.5407C153.281 22.5407 152.153 23.8119 152.153 25.4007C152.153 26.9737 153.3 28.2632 154.873 28.2632C156.441 28.2632 157.568 26.9893 157.568 25.4007ZM151.662 25.4007C151.662 23.6663 152.947 22.1128 154.873 22.1128C156.797 22.1128 158.06 23.6487 158.06 25.4007C158.06 27.1363 156.778 28.6926 154.852 28.6926C152.926 28.6926 151.662 27.1581 151.662 25.4007Z" fill="#595959"/>
<path d="M159.805 25.6311H162.237V26.1385H159.805V25.6311Z" fill="#595959"/>
<path d="M163.318 28.4933L163.465 28.1021C163.575 28.1561 163.835 28.209 164.072 28.209C164.566 28.209 165.474 27.9007 165.474 23.4397V22.2234H169.369V28.5813H168.899V22.6576H165.931V23.4594C165.931 28.0633 164.997 28.6481 164.081 28.6481C163.844 28.6481 163.488 28.5637 163.318 28.4933Z" fill="#595959"/>
<path d="M177.328 25.4007C177.328 23.8317 176.185 22.5407 174.611 22.5407C173.037 22.5407 171.912 23.8119 171.912 25.4007C171.912 26.9737 173.061 28.2632 174.633 28.2632C176.201 28.2632 177.328 26.9893 177.328 25.4007ZM171.422 25.4007C171.422 23.6663 172.705 22.1128 174.633 22.1128C176.555 22.1128 177.819 23.6487 177.819 25.4007C177.819 27.1363 176.538 28.6926 174.611 28.6926C172.686 28.6926 171.422 27.1581 171.422 25.4007Z" fill="#595959"/>
<path d="M179.871 22.2229H183.842V22.6573H180.341V28.581H179.871V22.2229Z" fill="#595959"/>
<path d="M185.674 22.2229H186.146V27.9002L190.284 22.2229H190.745V28.581H190.272V22.9043L186.146 28.581H185.674V22.2229Z" fill="#595959"/>
<path d="M192.797 25.4007C192.797 23.603 194.144 22.1128 195.978 22.1128C197.115 22.1128 197.769 22.5613 198.425 23.1567L198.115 23.4755C197.561 22.9406 196.924 22.5407 195.969 22.5407C194.442 22.5407 193.289 23.786 193.289 25.4007C193.289 27.0096 194.464 28.2632 195.978 28.2632C196.895 28.2632 197.522 27.9098 198.17 27.2764L198.485 27.5854C197.814 28.247 197.088 28.6926 195.959 28.6926C194.144 28.6926 192.797 27.249 192.797 25.4007Z" fill="#595959"/>
<path d="M201.99 22.6576H199.777V22.2234H204.682V22.6576H202.465V28.5813H201.99V22.6576Z" fill="#595959"/>
<path d="M206.553 22.2229H207.022V27.9002L211.159 22.2229H211.622V28.581H211.148V22.9043L207.022 28.581H206.553V22.2229Z" fill="#595959"/>
<path d="M217.865 25.7494C217.415 25.9956 216.463 26.4088 215.752 26.4088C214.527 26.4088 213.736 25.7929 213.736 24.5866V22.2229H214.211V24.6323C214.211 25.4481 214.772 25.9845 215.728 25.9845C216.436 25.9845 217.264 25.6501 217.865 25.3037V22.2229H218.334V28.581H217.865V25.7494Z" fill="#595959"/>
<path d="M220.672 22.2229H225.198V22.6573H221.139V25.158H224.787V25.5924H221.139V28.148H225.243V28.581H220.672V22.2229Z" fill="#595959"/>
<path d="M226.91 25.4007C226.91 23.603 228.255 22.1128 230.092 22.1128C231.227 22.1128 231.882 22.5613 232.533 23.1567L232.226 23.4755C231.671 22.9406 231.033 22.5407 230.083 22.5407C228.556 22.5407 227.399 23.786 227.399 25.4007C227.399 27.0096 228.572 28.2632 230.092 28.2632C231.009 28.2632 231.634 27.9098 232.281 27.2764L232.599 27.5854C231.927 28.247 231.198 28.6926 230.072 28.6926C228.255 28.6926 226.91 27.249 226.91 25.4007Z" fill="#595959"/>
<path d="M234.342 22.2229H234.811V26.4025L238.867 22.2229H239.512L236.731 25.0286L239.63 28.581H239.013L236.394 25.3643L234.811 26.9641V28.581H234.342V22.2229Z" fill="#595959"/>
<path d="M241.271 22.2229H241.742V27.9002L245.878 22.2229H246.342V28.581H245.871V22.9043L241.742 28.581H241.271V22.2229Z" fill="#595959"/>
<path d="M249.992 20.6505L250.366 20.5701C250.474 20.9777 250.745 21.2305 251.219 21.2305C251.694 21.2305 251.967 20.9777 252.075 20.5701L252.447 20.6505C252.336 21.2388 251.865 21.6936 251.219 21.6936C250.574 21.6936 250.104 21.2388 249.992 20.6505ZM248.672 22.2229H249.151V27.8988L253.286 22.2229H253.747V28.5816H253.275V22.9042L249.151 28.5816H248.672V22.2229Z" fill="#595959"/>
<path d="M263.518 27.6435C265.083 27.6175 265.956 26.6898 265.956 25.3518C265.956 24.0172 265.083 23.0838 263.518 23.0537H263.223V27.6435H263.518ZM262.746 27.6435V23.0537H262.448C260.888 23.0838 260.013 24.0172 260.013 25.3518C260.013 26.6898 260.888 27.6175 262.448 27.6435H262.746ZM262.746 28.0708H262.448C260.585 28.0708 259.52 26.8418 259.52 25.3518C259.52 23.8646 260.585 22.6271 262.448 22.6271H262.746V21.9817H263.223V22.6271H263.518C265.381 22.6271 266.443 23.8646 266.443 25.3518C266.443 26.8418 265.381 28.0708 263.518 28.0708H263.223V28.7773H262.746V28.0708Z" fill="#595959"/>
<path d="M273.903 25.3612C273.903 23.7918 272.76 22.5015 271.188 22.5015C269.614 22.5015 268.488 23.7734 268.488 25.3612C268.488 26.933 269.635 28.2261 271.203 28.2261C272.775 28.2261 273.903 26.9547 273.903 25.3612ZM267.994 25.3612C267.994 23.6262 269.279 22.0757 271.203 22.0757C273.13 22.0757 274.395 23.6052 274.395 25.3612C274.395 27.0962 273.114 28.6511 271.188 28.6511C269.259 28.6511 267.994 27.116 267.994 25.3612Z" fill="#595959"/>
<path d="M278.663 25.7341C279.844 25.7341 280.647 25.1154 280.647 24.1525C280.647 23.1453 279.864 22.6188 278.715 22.6188H276.919V25.7341H278.663ZM276.445 22.1838H278.755C280.15 22.1838 281.119 22.8995 281.119 24.1447C281.119 25.4813 279.966 26.1704 278.637 26.1704H276.919V28.544H276.445V22.1838Z" fill="#595959"/>
<path d="M282.823 28.4312L283.005 28.0244C283.269 28.1511 283.469 28.204 283.839 28.204C284.341 28.204 284.871 27.9161 285.277 27.0952L282.404 22.1838H282.961L285.512 26.6082L287.694 22.1838H288.212L285.687 27.2531C285.177 28.27 284.497 28.6509 283.839 28.6509C283.414 28.6509 283.143 28.5769 282.823 28.4312Z" fill="#595959"/>
<path d="M290 22.1838H290.447L292.997 25.9446L295.553 22.1838H296V28.544H295.526V23.017L293.006 26.6794H292.974L290.457 23.017V28.544H290V22.1838Z" fill="#595959"/>
<path d="M86.2156 43.8356C88.5101 43.8356 89.4596 42.9495 89.4596 41.2405C89.4596 39.6229 88.5101 38.708 86.2156 38.708H83.9019V43.8356H86.2156ZM83.9019 45.9986V51.4479H81.3926V36.5254H86.4773C89.9143 36.5254 91.9703 38.1666 91.9703 41.2405C91.9703 44.2714 89.9382 45.9986 86.4773 45.9986H83.9019Z" fill="#595959"/>
<path d="M99.0422 43.2296C101.162 43.2296 102.2 42.6657 102.2 40.98C102.2 39.2928 101.162 38.7079 99.0422 38.7079H96.6434V43.2296H99.0422ZM102.418 51.4492L99.5406 45.3954H96.6434V51.4492H94.1328V36.5259H99.2174C102.657 36.5259 104.713 38.0159 104.713 40.98C104.713 43.0352 103.738 44.3549 102.007 44.9828L105.185 51.4492H102.418Z" fill="#595959"/>
<path d="M109.213 44.9407C109.213 48.1608 110.29 49.4609 112.284 49.4609C114.273 49.4609 115.373 48.1608 115.373 44.9407V43.0353C115.373 39.8137 114.273 38.515 112.284 38.515C110.29 38.515 109.213 39.8137 109.213 43.0353V44.9407ZM112.284 51.645C108.95 51.645 106.703 49.6319 106.703 44.9407V43.0353C106.703 38.3426 108.95 36.3311 112.284 36.3311C115.636 36.3311 117.883 38.3426 117.883 43.0353V44.9407C117.883 49.6319 115.636 51.645 112.284 51.645Z" fill="#595959"/>
<path d="M139.105 49.2851H145.118V38.711H140.618V40.2672C140.618 44.3109 140.294 46.4098 139.711 48.0772C139.561 48.5297 139.343 48.9184 139.105 49.2851ZM135.365 54.2613V49.2851H136.208C136.681 48.8761 137.136 47.9878 137.418 47.1221C137.874 45.7171 138.111 43.7732 138.111 40.2672V36.5254H147.627V49.2851H149.489V54.2613H147.154V51.4487H137.702V54.2613H135.365Z" fill="#595959"/>
<path d="M154.075 49.2851H156.69C158.701 49.2851 159.632 48.4629 159.632 47.0347C159.632 45.4575 158.597 44.7859 156.388 44.7859H154.075V49.2851ZM154.075 42.6223H156.519C158.377 42.6223 159.159 41.7812 159.159 40.5479C159.159 39.3796 158.576 38.6848 156.194 38.6848H154.075V42.6223ZM156.371 36.5254C159.872 36.5254 161.666 37.8249 161.666 40.3953C161.666 41.934 160.783 43.1684 159.484 43.6393C161.17 44.1146 162.142 45.2857 162.142 47.1658C162.142 49.4188 160.715 51.4487 156.844 51.4487H151.562V36.5254H156.371Z" fill="#595959"/>
<path d="M167.1 36.5259V46.71L173.695 36.5259H175.75V51.4484H173.243V41.369L166.666 51.4484H164.586V36.5259H167.1Z" fill="#595959"/>
<path d="M177.502 51.4486L182.024 43.9024L178.304 36.5259H180.983L184.12 42.8629H185.739V36.5259H188.253V42.8629H189.874L193.007 36.5259H195.693L191.971 43.9024L196.492 51.4486H193.618L189.791 45.0245H188.253V51.4486H185.739V45.0245H184.209L180.38 51.4486H177.502Z" fill="#595959"/>
<path d="M207.421 36.5259V38.7106H200.778V42.6494H206.769V44.811H200.778V49.2854H207.421V51.4484H198.27V36.5259H207.421Z" fill="#595959"/>
<path d="M212.309 42.6432H218.02V36.5259H220.528V51.4492H218.02V44.811H212.309V51.4492H209.799V36.5259H212.309V42.6432Z" fill="#595959"/>
<path d="M226.328 36.5259V46.71L232.922 36.5259H234.978V51.4484H232.47V41.369L225.893 51.4484H223.816V36.5259H226.328Z" fill="#595959"/>
<path d="M247.397 36.5259V38.7106H240.756V42.6494H246.747V44.811H240.756V49.2854H247.397V51.4484H238.244V36.5259H247.397Z" fill="#595959"/>
<path d="M253.547 51.4481H250.564V48.4631H253.547V51.4481Z" fill="#DC000B"/>
<path d="M259.138 51.4486H256.629V39.231L254.488 40.7006V38.1674L256.781 36.5259H259.138V51.4486Z" fill="#DC000B"/>
<path d="M266.903 44.6091H264.632V36.5259H272.722V38.8832H267.076V42.0406C267.528 41.5845 268.22 41.1741 269.368 41.1741C271.859 41.1741 273.303 43.0993 273.303 46.5588C273.303 49.8253 271.749 51.6427 268.766 51.6427C266.343 51.6427 264.439 50.128 264.219 47.7503H266.684C266.946 48.8323 267.637 49.4608 268.719 49.4608C269.999 49.4608 270.799 48.6182 270.799 46.6474C270.799 44.5921 270.193 43.5111 268.719 43.5111C267.833 43.5111 267.272 43.9862 266.903 44.6091Z" fill="#DC000B"/>
<path d="M284.361 51.4483H275.336V49.6738L280.467 43.6606C281.436 42.5374 281.98 41.5639 281.98 40.5278C281.98 39.165 280.964 38.4719 279.858 38.4719C278.693 38.4719 277.806 39.1848 277.738 40.5278H275.447C275.447 37.9994 277.481 36.3301 279.946 36.3301C282.5 36.3301 284.466 38.0601 284.466 40.5693C284.466 42.4535 283.168 43.9232 282.217 45.0684L278.693 49.2853H284.361V51.4483Z" fill="#DC000B"/>
<path d="M291.302 38.5134C289.939 38.5134 289.093 39.4438 289.093 41.0431V46.9274C289.093 48.5285 289.939 49.4605 291.302 49.4605C292.645 49.4605 293.488 48.5285 293.488 46.9274V41.0431C293.488 39.4438 292.645 38.5134 291.302 38.5134ZM291.302 51.6446C288.816 51.6446 286.607 50.1736 286.607 47.0794V40.915C286.607 37.7363 288.816 36.3301 291.302 36.3301C293.79 36.3301 296 37.7363 296 40.8945V47.0794C296 50.1736 293.79 51.6446 291.302 51.6446Z" fill="#DC000B"/>
<path d="M127.952 34.6023H130.297L120.205 55.2783H117.857L127.952 34.6023Z" fill="#DC000B"/>
<path fill-rule="evenodd" clip-rule="evenodd" d="M182.789 16.3824L192.004 0H274.944L265.729 16.3824H182.789Z" fill="#DC000B"/>
<path d="M214.223 12.2952V2.95312H216.118L220.496 8.70449V2.95312H222.528V12.2952H220.776L216.255 6.35475V12.2952H214.223ZM224.768 12.2952V2.95312H226.827V10.4261H231.484V12.2952H224.768ZM233.127 12.2952V2.95312H235.181V12.2952H233.127Z" fill="white"/>
<path d="M237.568 12.2952V2.95312H239.464L243.842 8.70449V2.95312H245.874V12.2952H244.122L239.6 6.35475V12.2952H237.568ZM248.114 12.2952V2.95312H255.163V4.78072H250.157V6.67638H254.561V8.50397H250.157V10.4676H255.231V12.2952H248.114Z" fill="white"/>
<path d="M212.306 7.43668C212.306 10.1894 210.075 12.421 207.322 12.421C204.569 12.421 202.338 10.1894 202.338 7.43668C202.338 4.68393 204.569 2.45239 207.322 2.45239C210.075 2.45239 212.306 4.68393 212.306 7.43668ZM204.539 7.43668C204.539 8.97399 205.785 10.2202 207.322 10.2202C208.859 10.2202 210.106 8.97399 210.106 7.43668C210.106 5.89937 208.859 4.65313 207.322 4.65313C205.785 4.65313 204.539 5.89937 204.539 7.43668Z" fill="white"/>
</svg>
