<svg width="74" height="46" viewBox="0 0 74 46" fill="none" xmlns="http://www.w3.org/2000/svg">
<rect x="0.5" y="3.5" width="73" height="39" stroke="#DC000B"/>
<path d="M9.85406 28H17.7101V26.208H11.8221V16.8H9.85406V28ZM19.5683 18.256H21.6483V16.416H19.5683V18.256ZM19.6483 28H21.5843V19.552H19.6483V28ZM26.7864 28.064H28.5304L31.9864 19.552H29.9544L27.6664 25.76L25.3944 19.552H23.3144L26.7864 28.064ZM37.0177 28.192C38.5697 28.192 39.6737 27.568 40.4737 26.608L39.3377 25.6C38.6657 26.256 37.9937 26.608 37.0497 26.608C35.8017 26.608 34.8257 25.84 34.6177 24.464H40.8257C40.8417 24.368 40.8577 24.048 40.8577 23.92C40.8577 21.488 39.4977 19.376 36.8097 19.376C34.3937 19.376 32.6817 21.36 32.6817 23.776C32.6817 26.416 34.5697 28.192 37.0177 28.192ZM34.6017 23.184C34.7777 21.872 35.6097 20.96 36.7937 20.96C38.0737 20.96 38.8097 21.936 38.9377 23.184H34.6017Z" fill="white"/>
<path d="M46 1L59 23L46 45" stroke="white"/>
<path d="M50 1L63 23L50 45" stroke="white"/>
<path d="M54 1L67 23L54 45" stroke="white"/>
<path d="M58 1L71 23L58 45" stroke="white"/>
</svg>
