<svg width="85" height="39" viewBox="0 0 85 39" fill="none" xmlns="http://www.w3.org/2000/svg">
<path d="M0 19.1974V1.45972H13.3787V5.68432H5.88058V19.1974H0Z" fill="white"/>
<path d="M15.3733 15.4233C15.4349 15.1742 15.4973 14.8863 15.5609 14.5606C15.6227 14.2359 15.6805 13.903 15.7362 13.5613C15.7911 13.2194 15.8497 12.8862 15.9114 12.5618C15.9737 12.2379 16.0373 11.9417 16.0984 11.6745L17.2001 6.75073H23.104L18.2783 21.2849C17.9036 22.368 17.31 23.1478 16.4978 23.622C15.685 24.0972 14.748 24.3346 13.6853 24.3346C13.0916 24.3346 12.4638 24.2806 11.7991 24.1722C11.1357 24.0643 10.4518 23.9097 9.74944 23.7095L10.4518 19.8617C10.8123 19.8934 11.0888 19.9193 11.2857 19.936C11.4795 19.9523 11.6627 19.9606 11.8349 19.9606C12.4904 19.9606 13.1508 20.056 13.4007 19.8812C13.6495 19.7059 13.6304 19.6136 13.7562 19.1473L13.9197 18.5476H11.4604L7.89795 6.75073H13.5217L14.6234 11.7989C14.6703 12.0496 14.7171 12.3329 14.7622 12.6492C14.8111 12.9662 14.8579 13.2861 14.9047 13.6114C14.9511 13.9368 14.9987 14.2525 15.0455 14.5606C15.0906 14.8694 15.1387 15.1475 15.1856 15.399L15.3733 15.4233Z" fill="white"/>
<path d="M29.0777 10.5753L29.0302 11.1502C28.9525 12.0663 28.839 12.8904 28.6915 13.6235C28.5427 14.3576 28.336 14.9571 28.0693 15.4234H30.6004V10.5753H29.0777ZM35.9427 15.4234L37.3011 15.5241V23.6064H33.2716V19.1975H25.7043V23.5066H21.5093V15.5241L22.8461 15.4234C23.2664 14.9235 23.6028 14.2606 23.8533 13.4368C24.1021 12.6126 24.2818 11.4832 24.3915 10.0497L24.6255 6.77661H35.9667L35.9427 15.4234Z" fill="white"/>
<path d="M46.6364 12.9493C46.6364 12.1325 46.5508 11.537 46.3792 11.162C46.2064 10.7875 45.8861 10.5997 45.4182 10.5997C44.9499 10.5997 44.6288 10.8166 44.4573 11.2491C44.2863 11.6822 44.2 12.2487 44.2 12.9493C44.2 13.8312 44.2863 14.4652 44.4573 14.8486C44.6288 15.2319 44.9499 15.4233 45.4182 15.4233C45.8861 15.4233 46.2064 15.2319 46.3792 14.8486C46.5508 14.4652 46.6364 13.8312 46.6364 12.9493ZM52.4941 12.9493C52.4941 13.9153 52.3621 14.7982 52.0955 15.5984C51.8294 16.3986 51.4116 17.0859 50.8419 17.6607C50.2711 18.2354 49.5416 18.6819 48.651 18.9979C47.761 19.3138 46.6835 19.4723 45.4182 19.4723C44.1375 19.4723 43.0513 19.3138 42.1621 18.9979C41.2709 18.6819 40.5444 18.2354 39.9828 17.6607C39.4206 17.0859 39.0108 16.3986 38.7528 15.5984C38.4954 14.7982 38.3652 13.9153 38.3652 12.9493C38.3652 11.9989 38.4954 11.1243 38.7528 10.3248C39.0108 9.52433 39.4236 8.84234 39.9939 8.27533C40.5641 7.70943 41.295 7.26677 42.185 6.95069C43.0754 6.63462 44.1523 6.47559 45.4182 6.47559C46.6835 6.47559 47.7642 6.63462 48.6621 6.95069C49.5614 7.26677 50.2921 7.70943 50.8544 8.27533C51.416 8.84234 51.8294 9.52433 52.0955 10.3248C52.3621 11.1243 52.4941 11.9989 52.4941 12.9493Z" fill="white"/>
<path d="M65.1568 12.7235C65.5171 12.8239 65.814 12.9535 66.048 13.1113C66.2825 13.2708 66.4781 13.4415 66.6344 13.6234C66.7904 13.807 66.9182 14.0119 67.0194 14.2359C67.1219 14.461 67.2113 14.6907 67.2903 14.9233L68.6482 19.1977H62.9546L61.9474 15.7729C61.7765 15.2231 61.5691 14.8604 61.3277 14.6863C61.0839 14.5108 60.6982 14.4237 60.1681 14.4237H59.4417V19.1977H53.8408V6.75073H59.4417V11.0488H60.0971C60.5341 11.0488 60.8945 10.9463 61.1747 10.7369C61.4561 10.5296 61.6739 10.1754 61.8314 9.67479L62.6745 6.75073H68.0402L67.0798 10.4498C66.9546 10.9176 66.7324 11.3495 66.4115 11.7498C66.0906 12.1497 65.6734 12.4413 65.1568 12.6237V12.7235Z" fill="white"/>
<path d="M77.0327 15.9252C72.6791 15.9252 69.1377 12.475 69.1377 8.23565C69.1377 3.99566 72.6791 0.546631 77.0327 0.546631C81.3869 0.546631 84.9289 3.99566 84.9289 8.23565C84.9289 12.475 81.3869 15.9252 77.0327 15.9252ZM77.0327 2.12031C73.5832 2.12031 70.7768 4.86369 70.7768 8.23565C70.7768 11.6083 73.5832 14.3521 77.0327 14.3521C80.4826 14.3521 83.2896 11.6083 83.2896 8.23565C83.2896 4.86369 80.4826 2.12031 77.0327 2.12031Z" fill="white"/>
<path d="M74.829 7.79331V9.67314H76.3011V5.71509H74.829L74.2119 6.71405L73.5811 7.71949H73.5565V5.71509H72.0566V9.67314H73.5565L74.0984 8.85596L74.7865 7.79331H74.829Z" fill="white"/>
<path d="M79.4072 6.66789H79.9103V8.70195H78.9017C78.9899 8.58373 79.0603 8.46171 79.1122 8.33635C79.1646 8.21077 79.2085 8.07705 79.2418 7.93653C79.2758 7.796 79.3023 7.64309 79.3189 7.48249C79.3374 7.32022 79.3572 7.14477 79.3757 6.95406L79.4072 6.66789ZM80.7083 9.67314V10.758H81.8494V8.7238L81.4001 8.70195V5.71509H78.1456L78.0555 6.78276C78.0402 6.96946 78.0197 7.14957 77.9958 7.32489C77.9722 7.49966 77.9371 7.6674 77.8945 7.828C77.8494 7.98738 77.7902 8.14084 77.7174 8.28772C77.642 8.43405 77.5495 8.57224 77.4371 8.70195L76.981 8.7238V10.758H78.1209V9.67314H80.7083Z" fill="white"/>
<path d="M0.582031 29.5709C0.582031 29.5192 0.611696 29.4937 0.674598 29.4937H0.917843C0.957324 29.4937 0.97584 29.5192 0.97584 29.5709V34.3359L2.66137 32.027L4.44003 29.5941C4.50974 29.5278 4.55915 29.4937 4.5906 29.4937H4.84611C4.90109 29.4937 4.9283 29.5192 4.9283 29.5709V34.8597C4.9283 34.9124 4.89675 34.9392 4.83496 34.9392H4.5906C4.55178 34.9392 4.53327 34.9124 4.53327 34.8597V30.0524L3.04525 32.0939L0.999926 34.8941C0.992454 34.9017 0.980747 34.9107 0.964687 34.9213C0.949296 34.9331 0.929553 34.9392 0.90669 34.9392H0.662329C0.607903 34.9392 0.582031 34.9124 0.582031 34.8597V29.5709Z" fill="white"/>
<path d="M8.43609 32.0484C8.58431 32.0572 8.73365 32.0892 8.88421 32.1497C9.03611 32.2094 9.17129 32.294 9.29274 32.4062C9.41375 32.5174 9.51257 32.6548 9.58907 32.8192C9.66491 32.9821 9.70317 33.1651 9.70317 33.3656C9.70317 33.9231 9.50398 34.3399 9.10582 34.615C8.70655 34.89 8.13061 35.0281 7.37958 35.0281C7.15429 35.0281 6.89498 35.0121 6.60133 34.9813C6.30689 34.951 6.02361 34.8891 5.75204 34.7976C5.69839 34.7745 5.67798 34.7371 5.6946 34.6826L5.71746 34.5706C5.73285 34.5179 5.77178 34.496 5.83345 34.5037C6.04268 34.5339 6.22481 34.5588 6.37973 34.5812C6.53464 34.6039 6.66981 34.6205 6.78647 34.6312C6.90313 34.6436 7.00797 34.6504 7.10053 34.6536C7.19377 34.6578 7.28266 34.6602 7.36843 34.6602C7.97269 34.6602 8.44233 34.5577 8.77803 34.3538C9.11385 34.1506 9.28293 33.8377 9.28293 33.4162C9.28293 33.1794 9.23486 32.9831 9.1385 32.8269C9.04281 32.6723 8.91578 32.549 8.75718 32.461C8.59848 32.3718 8.41579 32.3108 8.21025 32.2779C8.00537 32.2433 7.79424 32.2278 7.5771 32.2278H7.3333C7.27095 32.2278 7.2395 32.2019 7.2395 32.1497V31.9488C7.2395 31.9037 7.27095 31.8812 7.3333 31.8812H7.53137C7.7474 31.8812 7.95663 31.8572 8.15782 31.8096C8.35891 31.7617 8.53368 31.6893 8.68112 31.5932C8.828 31.497 8.94589 31.3829 9.03611 31.255C9.12433 31.1249 9.16939 30.9753 9.16939 30.8046C9.16939 30.5982 9.12857 30.426 9.04716 30.2889C8.96574 30.1517 8.85577 30.0433 8.71581 29.9615C8.57628 29.8804 8.40954 29.825 8.21638 29.7951C8.02265 29.7648 7.81343 29.7507 7.58937 29.7507C7.50427 29.7507 7.39809 29.7547 7.2753 29.7618C7.15128 29.769 7.02101 29.7784 6.88573 29.7895C6.75 29.8006 6.61672 29.8137 6.484 29.8288C6.35251 29.8443 6.23284 29.8579 6.12421 29.8733C6.03911 29.8886 5.99272 29.8702 5.98469 29.8176L5.97242 29.7387C5.95692 29.67 5.98045 29.6238 6.04268 29.6013C6.33712 29.5018 6.63022 29.4402 6.92042 29.4164C7.21039 29.3939 7.44872 29.3821 7.63509 29.3821C8.03748 29.3821 8.36761 29.4211 8.62256 29.4991C8.8793 29.5779 9.07861 29.6802 9.22371 29.8058C9.3687 29.933 9.46751 30.0818 9.51937 30.2528C9.57301 30.4241 9.59956 30.5985 9.59956 30.7774C9.59956 30.911 9.57602 31.0446 9.53108 31.1788C9.48602 31.3121 9.41565 31.4369 9.32185 31.5524C9.22739 31.668 9.10649 31.7675 8.96016 31.8546C8.81261 31.9384 8.63796 31.9971 8.43609 32.0271V32.0484Z" fill="white"/>
<path d="M10.7494 34.9392L10.6815 36.1982C10.674 36.2959 10.6358 36.3436 10.5685 36.3436H10.4549C10.418 36.3436 10.3907 36.335 10.3759 36.3161C10.3612 36.2971 10.3494 36.2583 10.3413 36.1982L10.2964 34.8159C10.2964 34.7492 10.305 34.7033 10.3247 34.6817C10.3439 34.6601 10.3754 34.6408 10.4211 34.6257L10.6913 34.5925C10.995 34.3318 11.2023 34.048 11.3153 33.7388C11.4277 33.4299 11.5109 33.068 11.5647 32.6515L11.9146 29.8057C11.9306 29.702 11.9615 29.6237 12.0084 29.5709C12.0541 29.5192 12.1707 29.4937 12.3571 29.4937H15.2819C15.351 29.4937 15.3857 29.5278 15.3857 29.5941V34.6038L15.6658 34.6257C15.7504 34.6333 15.793 34.6888 15.793 34.7933L15.7233 36.1651C15.7158 36.2474 15.7016 36.2971 15.6831 36.3161C15.6628 36.335 15.6343 36.3436 15.5955 36.3436H15.4917C15.4516 36.3436 15.4251 36.3374 15.4096 36.3211C15.3937 36.3072 15.3831 36.2658 15.3752 36.1982L15.316 34.9392H10.7494ZM14.9912 29.8175H12.2948L11.9584 32.5294C11.8962 33.0051 11.8134 33.4147 11.709 33.7552C11.6035 34.0978 11.4277 34.3834 11.1795 34.6149H14.9912V29.8175Z" fill="white"/>
<path d="M20.8144 34.2685C20.6206 34.3801 20.43 34.4824 20.2448 34.5754C20.059 34.6687 19.8622 34.7493 19.6584 34.8159C19.4523 34.8823 19.2332 34.9367 19.0012 34.9777C18.7684 35.0186 18.5087 35.0396 18.2223 35.0396C17.7415 35.0396 17.389 34.9197 17.1644 34.6799C16.9398 34.4412 16.8286 34.0837 16.8286 33.6061C16.8286 32.9637 16.9866 32.5013 17.3045 32.2183C17.6224 31.9345 18.1217 31.7917 18.8043 31.7917H20.8144V31.1453C20.8144 30.9151 20.7922 30.7098 20.7497 30.532C20.707 30.3522 20.6281 30.2062 20.512 30.0909C20.396 29.975 20.2312 29.8886 20.0182 29.8287C19.8046 29.7689 19.5318 29.7396 19.1986 29.7396C18.9037 29.7396 18.6136 29.7518 18.3272 29.7784C18.0402 29.8049 17.7495 29.8323 17.4552 29.8616C17.4009 29.8616 17.3705 29.8442 17.3632 29.8057L17.3384 29.6851C17.3384 29.6487 17.3583 29.6237 17.3976 29.6093C17.5291 29.5657 17.676 29.5284 17.839 29.4951C18.002 29.4638 18.1643 29.438 18.3272 29.4205C18.4895 29.4019 18.6425 29.3896 18.7864 29.382C18.9296 29.376 19.0548 29.3713 19.1641 29.3713C19.5591 29.3713 19.888 29.4033 20.1515 29.4667C20.4145 29.5298 20.6255 29.6338 20.7848 29.7784C20.9435 29.9241 21.0545 30.1132 21.1162 30.3467C21.1773 30.5822 21.2081 30.8701 21.2081 31.2126V34.2471C21.2081 34.4405 21.2459 34.5588 21.3199 34.6038C21.392 34.6482 21.5377 34.6749 21.7556 34.6818C21.8026 34.6818 21.8248 34.7033 21.8248 34.7493V34.8941C21.8248 34.9457 21.7858 34.9759 21.7093 34.9818C21.3594 35.0059 21.1236 34.9675 21.0001 34.8713C20.8755 34.7759 20.8144 34.5748 20.8144 34.2685ZM20.8144 32.1609H18.7567C18.5396 32.1609 18.3402 32.1793 18.1587 32.216C17.9755 32.253 17.8168 32.3238 17.6823 32.4281C17.5464 32.5318 17.4416 32.6758 17.3687 32.8573C17.2947 33.0395 17.2576 33.2763 17.2576 33.5663C17.2576 33.9973 17.3453 34.291 17.5193 34.448C17.694 34.6038 18.0051 34.6818 18.4544 34.6818C18.6561 34.6818 18.8795 34.6503 19.1228 34.587C19.3671 34.5241 19.6017 34.4498 19.827 34.3633C20.0509 34.2778 20.2515 34.1932 20.43 34.1067C20.6083 34.0214 20.7361 33.9597 20.8144 33.9231V32.1609Z" fill="white"/>
<path d="M24.5673 29.8175V34.8712C24.5673 34.9163 24.5407 34.9392 24.487 34.9392H24.2649C24.2037 34.9392 24.1729 34.9163 24.1729 34.8712V29.8175H22.3016C22.2399 29.8175 22.209 29.795 22.209 29.7506V29.5609C22.209 29.5162 22.2399 29.4937 22.3016 29.4937H26.4848C26.5243 29.4937 26.5434 29.5162 26.5434 29.5609V29.7506C26.5434 29.795 26.5243 29.8175 26.4848 29.8175H24.5673Z" fill="white"/>
<path d="M27.1011 32.1829C27.1011 31.8485 27.1263 31.5158 27.1769 31.1841C27.2256 30.8525 27.3313 30.5542 27.4904 30.2863C27.6485 30.0188 27.8713 29.8031 28.1583 29.6394C28.4453 29.4758 28.8254 29.394 29.2976 29.394C29.7624 29.394 30.14 29.4602 30.4307 29.5943C30.7209 29.7289 30.9455 29.909 31.1047 30.1353C31.2633 30.3619 31.372 30.6233 31.4301 30.9167C31.4873 31.2107 31.5171 31.5135 31.5171 31.8254C31.5171 31.9892 31.4911 32.1083 31.4404 32.1829C31.3905 32.2582 31.2917 32.2941 31.1448 32.2941H27.5306C27.5306 32.6066 27.5509 32.9059 27.5892 33.1926C27.6282 33.4788 27.7078 33.7318 27.828 33.9517C27.9478 34.1708 28.1256 34.3438 28.3589 34.4697C28.5915 34.5965 28.9032 34.6603 29.2921 34.6603C29.6018 34.6603 29.8993 34.6463 30.1826 34.6206C30.4666 34.5945 30.7646 34.5661 31.0745 34.5364C31.1374 34.5364 31.1713 34.5557 31.1793 34.5927L31.1917 34.6941C31.2071 34.7453 31.1917 34.7761 31.1448 34.7823C31.0295 34.8268 30.8893 34.8641 30.727 34.8943C30.564 34.924 30.3949 34.9503 30.2214 34.9723C30.0462 34.9945 29.8747 35.0093 29.7037 35.0163C29.5334 35.0235 29.3859 35.0283 29.2618 35.0283C28.7742 35.0283 28.3867 34.9503 28.1008 34.7935C27.8139 34.6366 27.5966 34.4295 27.4498 34.1696C27.3023 33.9084 27.2066 33.6063 27.1646 33.2595C27.122 32.9141 27.1011 32.5554 27.1011 32.1829ZM29.2921 29.762C28.9335 29.762 28.6422 29.8177 28.4168 29.929C28.1922 30.0405 28.0138 30.1957 27.8861 30.3919C27.759 30.5888 27.667 30.8211 27.6127 31.0898C27.5578 31.3573 27.5276 31.6515 27.5195 31.9709H31.0874C31.0781 31.688 31.0578 31.4139 31.0225 31.1517C30.988 30.8872 30.9109 30.6507 30.7893 30.4425C30.6689 30.2336 30.4905 30.0678 30.253 29.9462C30.016 29.823 29.6957 29.762 29.2921 29.762Z" fill="white"/>
<path d="M37.0039 29.4937C37.0496 29.4937 37.0712 29.5162 37.0712 29.5609V34.8712C37.0712 34.9163 37.0496 34.9392 37.0039 34.9392H36.7663C36.7064 34.9392 36.6762 34.9163 36.6762 34.8712V29.8175H34.0618L33.8051 33.0529C33.7835 33.2982 33.752 33.5402 33.7131 33.7784C33.6748 34.0166 33.594 34.2299 33.4749 34.4207C33.3545 34.6085 33.1835 34.7596 32.9638 34.8712C32.7423 34.9818 32.4423 35.0307 32.0627 35.0161C32.0078 35.0161 31.9819 34.9901 31.9819 34.9392V34.7821C31.9819 34.7376 31.9936 34.7122 32.0164 34.7033C32.0393 34.6974 32.0708 34.6939 32.1096 34.6939C32.3726 34.6773 32.5836 34.6333 32.7423 34.5587C32.9015 34.4847 33.0274 34.3734 33.1213 34.2246C33.2132 34.0756 33.2811 33.8898 33.3243 33.6664C33.3662 33.4431 33.3996 33.1752 33.4231 32.8631L33.6544 29.9407C33.6705 29.7689 33.7101 29.6528 33.7779 29.5888C33.8439 29.5257 33.9644 29.4937 34.1439 29.4937H37.0039Z" fill="white"/>
<path d="M40.8368 31.803C41.1702 31.803 41.4485 31.8498 41.6739 31.9434C41.8985 32.0352 42.0787 32.1587 42.2138 32.3108C42.3496 32.4633 42.4471 32.6349 42.5045 32.8239C42.5632 33.0135 42.5922 33.206 42.5922 33.3986C42.5922 33.8969 42.423 34.2778 42.0867 34.5421C41.749 34.8064 41.3016 34.9392 40.7437 34.9392H38.4546C38.3922 34.9392 38.3613 34.9124 38.3613 34.8597V29.5709C38.3613 29.5192 38.3922 29.4937 38.4546 29.4937H38.6645C38.7261 29.4937 38.7564 29.5192 38.7564 29.5709V31.803H40.8368ZM40.6505 34.6149C41.0998 34.6149 41.4708 34.5178 41.7614 34.3241C42.0503 34.1309 42.1959 33.8261 42.1959 33.4092C42.1959 33.1195 42.1423 32.8908 42.0343 32.7237C41.925 32.5558 41.7991 32.4304 41.6559 32.3451C41.5134 32.2591 41.3652 32.2047 41.2146 32.1827C41.064 32.1609 40.9412 32.1496 40.848 32.1496H38.7564V34.6149H40.6505Z" fill="white"/>
<path d="M47.2163 34.726C47.2237 34.7705 47.2052 34.8006 47.1589 34.8161C47.0429 34.8534 46.9065 34.8866 46.7516 34.9165C46.5961 34.9458 46.4362 34.9701 46.2701 34.9891C46.1029 35.0075 45.9443 35.0211 45.7925 35.0283C45.6419 35.0341 45.516 35.0397 45.416 35.0397C44.958 35.0397 44.5957 34.9701 44.3285 34.8321C44.0613 34.6941 43.8533 34.4997 43.7033 34.2473C43.5533 33.9948 43.4565 33.6926 43.4132 33.3425C43.3688 32.9935 43.3472 32.6066 43.3472 32.1829C43.3472 31.8032 43.3706 31.4449 43.4188 31.107C43.4657 30.7681 43.5644 30.4724 43.7143 30.2194C43.8651 29.9671 44.0791 29.7655 44.3582 29.6162C44.6377 29.4681 45.0081 29.394 45.4739 29.394C45.5734 29.394 45.698 29.3969 45.8455 29.4053C45.9918 29.413 46.1436 29.4266 46.2992 29.4462C46.4547 29.464 46.6066 29.4894 46.7572 29.5194C46.909 29.5502 47.0429 29.5848 47.1589 29.6234C47.2052 29.6394 47.2237 29.6702 47.2163 29.7151L47.1935 29.8289C47.1774 29.8734 47.1435 29.8917 47.0899 29.8847C46.7794 29.8467 46.4973 29.8177 46.2467 29.7952C45.9943 29.7732 45.7493 29.762 45.5079 29.762C45.1834 29.762 44.9099 29.804 44.6889 29.89C44.4693 29.9752 44.2909 30.1145 44.1544 30.3074C44.0187 30.5003 43.9224 30.7511 43.8643 31.0589C43.8051 31.3662 43.7768 31.7397 43.7768 32.1783C43.7768 32.6374 43.8033 33.0244 43.857 33.3414C43.9125 33.656 44.0056 33.9119 44.1371 34.1087C44.2686 34.3053 44.4452 34.4486 44.6661 34.5364C44.887 34.6259 45.1672 34.6704 45.5079 34.6704C45.7493 34.6704 46.0215 34.6603 46.3282 34.6366C46.6337 34.6152 46.891 34.5892 47.1008 34.5589C47.1392 34.5518 47.1632 34.5543 47.17 34.5636C47.1774 34.5756 47.1861 34.5927 47.1935 34.6152L47.2163 34.726Z" fill="white"/>
<path d="M49.5871 31.9707C49.6884 31.9707 49.8007 31.9603 49.9248 31.9369C50.0494 31.9149 50.1699 31.8705 50.2846 31.803C50.4006 31.7367 50.5136 31.64 50.6222 31.5133C50.7302 31.387 50.8191 31.2229 50.8901 31.022L51.3888 29.616C51.4115 29.5425 51.4547 29.5051 51.5177 29.5051H51.6801C51.764 29.5051 51.7917 29.5425 51.7615 29.616L51.2615 31.0446C51.1523 31.3504 51.0309 31.5896 50.8944 31.7645C50.7599 31.9384 50.5796 32.0537 50.3549 32.1045C50.6333 32.1567 50.8425 32.2682 50.982 32.4399C51.1214 32.6105 51.2585 32.8783 51.3888 33.2428L51.9349 34.8159C51.959 34.8977 51.9349 34.9392 51.8659 34.9392H51.6677C51.6375 34.9392 51.6115 34.935 51.5924 34.9273C51.5732 34.9196 51.5547 34.8941 51.5406 34.8488L50.9931 33.2763C50.9246 33.0754 50.8469 32.9116 50.7618 32.7859C50.6759 32.6588 50.5814 32.5599 50.4766 32.4891C50.3729 32.4186 50.2506 32.3718 50.1112 32.3505C49.971 32.3274 49.8161 32.3169 49.6458 32.3169H48.356V34.8488C48.356 34.9089 48.3288 34.9392 48.2744 34.9392H48.03C47.9844 34.9392 47.9609 34.9089 47.9609 34.8488V29.5709C47.9609 29.5192 47.9844 29.4937 48.03 29.4937H48.2744C48.3288 29.4937 48.356 29.5192 48.356 29.5709V31.9707H49.5871Z" fill="white"/>
<path d="M52.7607 29.5709C52.7607 29.5192 52.791 29.4937 52.8533 29.4937H53.0965C53.1367 29.4937 53.1558 29.5192 53.1558 29.5709V34.3359L54.8401 32.027L56.6187 29.5941C56.6891 29.5278 56.7385 29.4937 56.7701 29.4937H57.0262C57.0798 29.4937 57.1069 29.5192 57.1069 29.5709V34.8597C57.1069 34.9124 57.0761 34.9392 57.0138 34.9392H56.7701C56.7305 34.9392 56.712 34.9124 56.712 34.8597V30.0524L55.2245 32.0939L53.1792 34.8941C53.1718 34.9017 53.16 34.9107 53.1441 34.9213C53.1287 34.9331 53.1094 34.9392 53.086 34.9392H52.8423C52.7873 34.9392 52.7607 34.9124 52.7607 34.8597V29.5709Z" fill="white"/>
<path d="M58.2686 29.571C58.2686 29.5192 58.2994 29.4937 58.3618 29.4937H58.6056C58.6451 29.4937 58.6641 29.5192 58.6641 29.571V34.3359L60.3491 32.0271L62.1272 29.5942C62.1975 29.5278 62.2469 29.4937 62.2783 29.4937H62.5339C62.5883 29.4937 62.6161 29.5192 62.6161 29.571V34.8598C62.6161 34.9124 62.5845 34.9392 62.5221 34.9392H62.2783C62.2383 34.9392 62.2198 34.9124 62.2198 34.8598V30.0524L60.7323 32.094L58.6876 34.8941C58.6796 34.9017 58.6673 34.9108 58.6524 34.9214C58.637 34.9332 58.6179 34.9392 58.5944 34.9392H58.3506C58.2956 34.9392 58.2686 34.9124 58.2686 34.8598V29.571ZM60.5003 28.7914C60.2287 28.7914 59.9639 28.7301 59.7035 28.607C59.4449 28.4844 59.2419 28.2817 59.0938 27.9989C59.0789 27.9618 59.0611 27.9209 59.0413 27.8759C59.0227 27.8321 59.0321 27.7948 59.0709 27.7644L59.187 27.6863C59.2492 27.6424 59.2992 27.6535 59.3381 27.7195C59.5239 27.9876 59.7035 28.1727 59.8776 28.2722C60.0535 28.3727 60.2634 28.4228 60.5114 28.4228C60.7133 28.4228 60.9052 28.3689 61.0866 28.2616C61.2692 28.1526 61.4569 27.9692 61.6507 27.7093C61.6889 27.6566 61.7395 27.6454 61.8019 27.675L61.9056 27.742C61.9458 27.7716 61.9543 27.8059 61.9358 27.8422C61.9161 27.88 61.8946 27.9245 61.871 27.9762C61.7088 28.2669 61.505 28.4749 61.2613 28.6017C61.0168 28.7279 60.7644 28.7914 60.5003 28.7914Z" fill="white"/>
<path d="M66.5549 34.9392L66.4871 36.1982C66.4796 36.2959 66.4414 36.3436 66.3741 36.3436H66.2605C66.2229 36.3436 66.1963 36.335 66.1809 36.3161C66.1654 36.2971 66.155 36.2583 66.1464 36.1982L66.1025 34.8159C66.1025 34.7492 66.1099 34.7033 66.1291 34.6817C66.1494 34.6601 66.1804 34.6408 66.226 34.6257L66.4969 34.5925C66.7994 34.3318 67.0079 34.048 67.1202 33.7388C67.2332 33.4299 67.316 33.068 67.3708 32.6515L67.7195 29.8057C67.7362 29.702 67.7659 29.6237 67.8134 29.5709C67.8597 29.5192 67.9763 29.4937 68.1627 29.4937H71.0875C71.1574 29.4937 71.1911 29.5278 71.1911 29.5941V34.6038L71.4708 34.6257C71.556 34.6333 71.5984 34.6888 71.5984 34.7933L71.5282 36.1651C71.5207 36.2474 71.5066 36.2971 71.488 36.3161C71.4683 36.335 71.44 36.3436 71.401 36.3436H71.2973C71.2572 36.3436 71.2313 36.3374 71.2152 36.3211C71.1993 36.3072 71.1875 36.2658 71.1808 36.1982L71.1214 34.9392H66.5549ZM70.7975 29.8175H68.0998L67.764 32.5294C67.7011 33.0051 67.6183 33.4147 67.5134 33.7552C67.4091 34.0978 67.2332 34.3834 66.9851 34.6149H70.7975V29.8175Z" fill="white"/>
<path d="M74.8411 35.0283C74.3214 35.0283 73.9146 34.9406 73.621 34.7657C73.3265 34.5904 73.1056 34.3658 72.9587 34.0903C72.8111 33.8154 72.7198 33.5042 72.6847 33.1591C72.6495 32.8134 72.6328 32.4653 72.6328 32.116C72.6328 31.8404 72.6562 31.5431 72.7025 31.2231C72.7495 30.904 72.8482 30.6081 72.9989 30.3361C73.1501 30.0644 73.3698 29.8403 73.6617 29.6613C73.9516 29.4827 74.3449 29.394 74.8411 29.394C75.3453 29.394 75.7477 29.4717 76.0496 29.6281C76.352 29.784 76.5822 29.9907 76.7413 30.2472C76.8988 30.5039 77.0043 30.794 77.0543 31.1171C77.1042 31.4405 77.1308 31.7735 77.1308 32.116C77.1308 32.4502 77.1098 32.7914 77.0722 33.1366C77.0333 33.4824 76.9389 33.7946 76.787 34.074C76.6358 34.3531 76.4087 34.5814 76.1014 34.7598C75.7959 34.9394 75.3755 35.0283 74.8411 35.0283ZM74.8411 29.762C74.4614 29.762 74.1554 29.8251 73.9228 29.951C73.6907 30.0784 73.5098 30.2508 73.3821 30.4701C73.2542 30.6902 73.1686 30.9482 73.1278 31.2451C73.0845 31.5431 73.0631 31.8642 73.0631 32.2049C73.0631 32.5554 73.0845 32.8801 73.1278 33.1817C73.1686 33.4824 73.2542 33.7449 73.3821 33.9676C73.5098 34.1913 73.6907 34.3658 73.9228 34.4922C74.1554 34.6188 74.4614 34.682 74.8411 34.682C75.2288 34.682 75.5447 34.6206 75.7872 34.4976C76.0329 34.3753 76.2217 34.2044 76.3574 33.9853C76.4927 33.765 76.5841 33.5042 76.6302 33.2039C76.6772 32.9023 76.6999 32.5699 76.6999 32.2049C76.6999 31.8404 76.6772 31.5081 76.6302 31.2065C76.5841 30.9055 76.4945 30.649 76.363 30.4362C76.2316 30.2248 76.0432 30.0594 75.799 29.9409C75.5563 29.8219 75.236 29.762 74.8411 29.762Z" fill="white"/>
<path d="M83.5219 34.9392H83.2776C83.2158 34.9392 83.1838 34.9124 83.1838 34.8597V30.1967L81.0816 33.9565C81.073 33.971 81.0618 33.9864 81.0464 34.0015C81.0297 34.0166 81.0112 34.0236 80.9883 34.0236H80.7675C80.697 34.0236 80.6507 34.0015 80.628 33.9565C80.4409 33.6439 80.2675 33.3334 80.1039 33.0242C79.9423 32.7166 79.7836 32.4061 79.6281 32.0939C79.4732 31.7816 79.3146 31.467 79.1515 31.1515C78.9894 30.8345 78.816 30.5208 78.6288 30.2077V34.8597C78.6288 34.9124 78.601 34.9392 78.5474 34.9392H78.327C78.2641 34.9392 78.2339 34.9124 78.2339 34.8597V29.5709C78.2339 29.5192 78.2611 29.4937 78.3147 29.4937H78.5826C78.6356 29.4937 78.6752 29.5124 78.6986 29.5491L80.8723 33.6004L83.0923 29.5709C83.1146 29.5192 83.1658 29.4937 83.2423 29.4937H83.4756C83.5441 29.4937 83.5793 29.5242 83.5793 29.5829V34.8597C83.5793 34.9124 83.5602 34.9392 83.5219 34.9392Z" fill="white"/>
<path d="M84.929 26.2571H0V25.9087H84.929V26.2571Z" fill="white"/>
<path d="M84.929 38.678H0V38.3289H84.929V38.678Z" fill="white"/>
</svg>
