<svg width="73" height="45" viewBox="0 0 73 45" fill="none" xmlns="http://www.w3.org/2000/svg">
<path d="M72.4238 0.208496H0V44.8299H72.4238V0.208496Z" fill="#EE3123"/>
<path fill-rule="evenodd" clip-rule="evenodd" d="M46.4862 13.3406V14.1482H53.4561C53.7452 14.117 54.0377 14.1435 54.3165 14.226C54.5954 14.3085 54.8551 14.4454 55.0808 14.6289C55.2641 14.8555 55.401 15.1161 55.4835 15.3957C55.566 15.6753 55.5925 15.9685 55.5615 16.2584V23.2138C55.6225 23.7991 55.4497 24.3848 55.0808 24.8433C54.624 25.2119 54.0399 25.3847 53.4561 25.3239H50.0913C49.5049 25.3239 48.7502 25.3239 48.457 24.6846C48.1638 24.0453 48.5772 23.4637 48.9377 23.0023L53.4609 16.9601H46.4862L43.7079 20.6806C43.2272 21.3007 42.8379 21.839 42.8379 22.536C42.8379 23.233 43.208 23.7425 43.7079 24.401L44.4049 25.3239C45.1019 26.2565 45.7989 27.189 46.7266 27.6552C47.6543 28.1215 48.755 28.1359 50.2644 28.1359H53.2878C55.0231 28.1359 57.6428 28.1359 59.3732 26.3959C61.1037 24.6558 61.1229 22.0938 61.1229 21.1565V18.3349C61.1229 17.4024 61.1229 14.85 59.3732 13.1099C57.6236 11.3699 55.0471 11.365 53.2878 11.365H48.4811C48.2106 11.3362 47.9372 11.364 47.6781 11.4468C47.4191 11.5296 47.1801 11.6654 46.9765 11.8457C46.7932 12.0493 46.6554 12.2897 46.5725 12.5508C46.4896 12.812 46.4635 13.0878 46.4959 13.3599" fill="white"/>
<path fill-rule="evenodd" clip-rule="evenodd" d="M38.1373 16.9412H45.1024L36.7482 28.1025H29.7783L38.1373 16.9412Z" fill="white"/>
<path fill-rule="evenodd" clip-rule="evenodd" d="M10.9784 18.9167C10.9487 18.6448 10.9762 18.3697 11.059 18.1089C11.1417 17.8482 11.278 17.6076 11.459 17.4026C11.6615 17.2205 11.9003 17.0835 12.1597 17.0006C12.419 16.9178 12.693 16.8909 12.9636 16.9219H24.6152C26.1197 16.9219 27.2253 16.9219 28.153 17.4026C29.0807 17.8833 29.7825 18.8014 30.4843 19.7291L31.1717 20.6616C31.6523 21.3249 32.0417 21.82 32.0417 22.517C32.0417 23.214 31.6379 23.7572 31.1717 24.382L28.3837 28.0881H21.4235L25.9563 22.0556C26.3072 21.5749 26.711 21.0077 26.437 20.3684C26.163 19.7291 25.3891 19.7291 24.8075 19.7291H19.3374V33.6688H13.7615V19.7291H10.9784V18.9167Z" fill="white"/>
</svg>
