<?xml version="1.0" encoding="utf-8"?><svg xmlns="http://www.w3.org/2000/svg" xmlns:xlink="http://www.w3.org/1999/xlink"><symbol viewBox="0 0 24 24" id="ant-design_file-filled" xmlns="http://www.w3.org/2000/svg"><path d="M20.03 6.766c.14.141.22.33.22.53V21.75a.75.75 0 01-.75.75h-15a.75.75 0 01-.75-.75V2.25a.75.75 0 01.75-.75h9.954c.2 0 .391.08.532.22l5.044 5.046zm-1.51.875L14.11 3.23v4.41h4.41z"/></symbol><symbol viewBox="0 0 31 19" id="arror-left" xmlns="http://www.w3.org/2000/svg"><path d="M30.5 9.5H1m0 0L9.5 1M1 9.5L9.5 18"/></symbol><symbol viewBox="0 0 31 19" id="arror-right" xmlns="http://www.w3.org/2000/svg"><path d="M0 9.5h29.5m0 0L21 18m8.5-8.5L21 1"/></symbol><symbol class="adsvg-inline--fa adfa-arrow-left adfa-w-14" viewBox="0 0 448 512" id="arrow-back" xmlns="http://www.w3.org/2000/svg"><path d="M257.5 445.1l-22.2 22.2c-9.4 9.4-24.6 9.4-33.9 0L7 273c-9.4-9.4-9.4-24.6 0-33.9L201.4 44.7c9.4-9.4 24.6-9.4 33.9 0l22.2 22.2c9.5 9.5 9.3 25-.4 34.3L136.6 216H424c13.3 0 24 10.7 24 24v32c0 13.3-10.7 24-24 24H136.6l120.5 114.8c9.8 9.3 10 24.8.4 34.3z"/></symbol><symbol viewBox="0 0 12 20" id="arrow-left" xmlns="http://www.w3.org/2000/svg"><path d="M11 1l-9 9 9 9"/></symbol><symbol viewBox="0 0 12 20" id="arrow-right" xmlns="http://www.w3.org/2000/svg"><path d="M1 1l9 9-9 9"/></symbol><symbol viewBox="0 0 1390 72" id="arrows-date" xmlns="http://www.w3.org/2000/svg"><path d="M1002.97 1l21.13 33.382-24.51 37.186M678.443 1l21.128 33.382-24.509 37.186M840.707 1l21.128 33.382-24.509 37.186M516.179 1l21.128 33.382-24.509 37.186M921.839 1l21.128 33.382-24.509 37.186M597.31 1l21.128 33.382-24.508 37.186M759.575 1l21.128 33.382-24.509 37.186M435.047 1l21.128 33.382-24.509 37.186M962.405 1l21.128 33.382-24.509 37.186M637.877 1l21.128 33.382-24.509 37.186M800.14 1l21.129 33.382-24.509 37.186M475.613 1l21.128 33.382-24.509 37.186M881.273 1l21.128 33.382-24.509 37.186M556.744 1l21.129 33.382-24.509 37.186M719.009 1l21.128 33.382-24.509 37.186M394.481 1l21.128 33.382L391.1 71.568"/><path d="M989.449 1l21.131 33.382-24.512 37.186M664.921 1l21.128 33.382-24.509 37.186M827.184 1l21.128 33.382-24.508 37.186M502.657 1l21.128 33.382-24.509 37.186M908.317 1l21.128 33.382-24.509 37.186M583.789 1l21.128 33.382-24.509 37.186M746.053 1l21.128 33.382-24.509 37.186M421.525 1l21.128 33.382-24.509 37.186M948.883 1l21.128 33.382-24.509 37.186M624.355 1l21.128 33.382-24.509 37.186M786.618 1l21.129 33.382-24.509 37.186M462.091 1l21.128 33.382-24.509 37.186M867.751 1l21.128 33.382-24.509 37.186M543.222 1l21.129 33.382-24.509 37.186M705.487 1l21.128 33.382-24.509 37.186M380.959 1l21.128 33.382-24.509 37.186"/><path d="M975.927 1l21.128 33.382-24.509 37.186M651.399 1l21.128 33.382-24.509 37.186M813.663 1l21.128 33.382-24.509 37.186M489.135 1l21.128 33.382-24.509 37.186M894.795 1l21.128 33.382-24.509 37.186M570.266 1l21.129 33.382-24.509 37.186M732.531 1l21.128 33.382-24.509 37.186M408.003 1l21.128 33.382-24.509 37.186M935.361 1l21.128 33.382-24.509 37.186M610.833 1l21.128 33.382-24.509 37.186M773.096 1l21.129 33.382-24.509 37.186M448.569 1l21.128 33.382-24.509 37.186M854.229 1l21.128 33.382-24.509 37.186M529.7 1l21.129 33.382-24.509 37.186M691.965 1l21.128 33.382-24.509 37.186M367.436 1l21.128 33.382-24.508 37.186M1328.34 1l21.13 33.382-24.51 37.186M1166.08 1l21.13 33.382-24.51 37.186M1247.21 1l21.13 33.382-24.51 37.186M1084.95 1l21.13 33.382-24.51 37.186M1287.78 1l21.13 33.382-24.51 37.186M1125.51 1l21.13 33.382-24.51 37.186M1206.65 1l21.12 33.382-24.5 37.186M1368.91 1l21.13 33.382-24.51 37.186M1044.38 1l21.13 33.382L1041 71.568"/><path d="M1314.82 1l21.13 33.382-24.51 37.186M1152.56 1l21.13 33.382-24.51 37.186M1233.69 1l21.13 33.382-24.51 37.186M1071.43 1l21.12 33.382-24.5 37.186M1274.26 1l21.12 33.382-24.5 37.186M1111.99 1l21.13 33.382-24.51 37.186M1193.12 1l21.13 33.382-24.51 37.186M1355.39 1l21.13 33.382-24.51 37.186M1030.86 1l21.13 33.382-24.51 37.186"/><path d="M1301.3 1l21.13 33.382-24.51 37.186M1139.04 1l21.12 33.382-24.5 37.186M1220.17 1l21.13 33.382-24.51 37.186M1382.43 1l21.13 33.382-24.51 37.186M1057.9 1l21.13 33.382-24.51 37.186M1260.73 1l21.13 33.382-24.51 37.186M1098.47 1l21.13 33.382-24.51 37.186M1179.6 1l21.13 33.382-24.51 37.186M1341.87 1l21.12 33.382-24.5 37.186M1017.34 1l21.13 33.382-24.51 37.186M353.915 1l21.128 33.382-24.509 37.186M29.387 1l21.128 33.382-24.509 37.186M191.651 1l21.128 33.382-24.509 37.186M272.783 1l21.128 33.382-24.509 37.186M110.518 1l21.128 33.382-24.508 37.186M313.348 1l21.129 33.382-24.509 37.186M-11.18 1L9.95 34.382l-24.51 37.186M151.085 1l21.128 33.382-24.509 37.186M232.217 1l21.128 33.382-24.509 37.186M69.952 1l21.129 33.382-24.51 37.186"/><path d="M340.392 1l21.129 33.382-24.509 37.186M15.864 1l21.129 33.382-24.509 37.186M178.129 1l21.128 33.382-24.509 37.186M259.261 1l21.128 33.382-24.509 37.186M96.996 1l21.129 33.382-24.51 37.186M299.826 1l21.129 33.382-24.509 37.186M137.562 1l21.128 33.382-24.508 37.186M218.695 1l21.128 33.382-24.509 37.186M56.43 1l21.13 33.382-24.51 37.186"/><path d="M326.87 1l21.129 33.382-24.509 37.186M2.343 1L23.47 34.382-1.038 71.568M164.607 1l21.128 33.382-24.509 37.186M245.739 1l21.128 33.382-24.509 37.186M83.474 1l21.129 33.382-24.51 37.186M286.304 1l21.129 33.382-24.509 37.186M124.041 1l21.128 33.382-24.509 37.186M205.173 1l21.128 33.382-24.509 37.186M42.908 1l21.129 33.382-24.509 37.186"/></symbol><symbol viewBox="0 0 22 24" id="basket" xmlns="http://www.w3.org/2000/svg"><g clip-path="url(#ahclip0)"><path d="M10.363 18.443a2.046 2.046 0 00-2.045 2.042 2.046 2.046 0 004.09 0 2.046 2.046 0 00-2.045-2.042zm6.134 0a2.046 2.046 0 00-2.045 2.042 2.046 2.046 0 004.089 0 2.046 2.046 0 00-2.044-2.042zm3.978-8.199L7.413 6.891a.614.614 0 00-.75.73L8.67 16.4h-.786L5.482 5.895a.613.613 0 00-.474-.464l-4.27-.882A.614.614 0 00.489 5.75l3.885.802L6.797 17.15a.613.613 0 00.598.477h12.07a.615.615 0 00.607-.53l.858-6.175a.613.613 0 00-.455-.678zm-8.14 3.91a.613.613 0 01-1.227 0v-2.696a.613.613 0 011.227 0v2.696zm2.625 0a.613.613 0 01-1.227 0v-1.88a.613.613 0 011.227 0v1.88zm2.625 0a.613.613 0 01-1.227 0v-1.226a.613.613 0 011.227 0v1.226z"/></g><path fill-rule="evenodd" clip-rule="evenodd" d="M16.268 4.568a2.996 2.996 0 00-1.693-.523c-.627 0-1.21.193-1.693.523-.28-.843-.492-1.752-.492-2.383C12.39.98 13.37 0 14.575 0s2.185.98 2.185 2.185c0 .631-.212 1.54-.492 2.383zm-4.722 2.274l.024.006v-.011l-.024.005zm4.972 1.217c-1.333-.33-2.766-.681-4.129-1.013a2.185 2.185 0 114.129 1.013zm4.436 1.103c-.866-.217-2.155-.538-3.618-.9a2.995 2.995 0 00.243-1.425c.87.18 1.762.45 2.308.765.596.344.969.928 1.067 1.56zM9.869 6.439c-.36-.086-.706-.167-1.03-.243a2.19 2.19 0 01-.376-2.667 2.188 2.188 0 013.147-.7c.098.738.338 1.599.61 2.353a3.01 3.01 0 00-.449.774c-.628.113-1.305.278-1.902.483zm10.124.075a3.43 3.43 0 01-.217.114c-.696-.295-1.587-.526-2.397-.672a3.01 3.01 0 00-.449-.774c.262-.727.494-1.553.599-2.273.095-.067.189-.128.278-.18a2.188 2.188 0 012.986.8 2.188 2.188 0 01-.8 2.985z"/><defs><clipPath id="ahclip0"><path transform="translate(0 3.064)" d="M0 0h20.936v20.936H0z"/></clipPath></defs></symbol><symbol viewBox="0 0 24 24" id="bx_bxs-phone" xmlns="http://www.w3.org/2000/svg"><path d="M20.487 17.14l-4.065-3.696a1.001 1.001 0 00-1.39.043l-2.394 2.461c-.576-.11-1.734-.471-2.926-1.66-1.192-1.193-1.553-2.354-1.66-2.926l2.46-2.394a1 1 0 00.042-1.391L6.86 3.513a1 1 0 00-1.39-.087L3.3 5.287a1 1 0 00-.29.649c-.016.25-.302 6.172 4.29 10.766C11.305 20.707 16.323 21 17.705 21c.202 0 .326-.006.36-.008a.992.992 0 00.647-.291l1.86-2.171a.997.997 0 00-.085-1.39z"/></symbol><symbol viewBox="0 0 344.96 344.96" id="check" xmlns="http://www.w3.org/2000/svg"><g data-name="Слой 2"><path d="M321.85 86.24l-40-23.11-23.1-40H212.5L172.48 0l-40 23.11H86.24l-23.11 40-40 23.1v46.21L0 172.48l23.11 40v46.21l40 23.11 23.11 40h46.21l40 23.1 40-23.11h46.21l23.11-40 40-23.11V212.5l23.11-40-23.11-40V86.24zM156.91 243.07a16.79 16.79 0 01-23.34 0l-50.45-50.44a16.19 16.19 0 010-22.89l13.35-13.35a16.19 16.19 0 0122.89 0l25.87 25.87 80.34-80.35a16.19 16.19 0 0122.89 0l13.35 13.35a16.19 16.19 0 010 22.89z" data-name="Capa 1"/></g></symbol><symbol viewBox="0 0 13 21" id="chevron-left" xmlns="http://www.w3.org/2000/svg"><path d="M11.5 19L3 10.5 11.5 2"/></symbol><symbol viewBox="0 0 13 21" id="chevron-right" xmlns="http://www.w3.org/2000/svg"><path d="M2 2l8.5 8.5L2 19"/></symbol><symbol viewBox="0 0 24 24" id="eva_download-outline" xmlns="http://www.w3.org/2000/svg"><path d="M19 18H5a1 1 0 100 2h14a1 1 0 100-2z"/><path d="M4 17v2a1 1 0 102 0v-2a1 1 0 10-2 0zm14 0v2a1 1 0 102 0v-2a1 1 0 10-2 0zm-6-2a1 1 0 01-.58-.18l-4-2.82a1 1 0 111.16-1.63L12 12.76l3.4-2.56a1 1 0 011.2 1.6l-4 3a1 1 0 01-.6.2z"/><path d="M12 13a1 1 0 01-1-1V4a1 1 0 012 0v8a1 1 0 01-1 1z"/></symbol><symbol viewBox="0 0 24 24" id="fb" xmlns="http://www.w3.org/2000/svg"><path d="M13.397 20.997v-8.196h2.765l.411-3.209h-3.176V7.548c0-.926.258-1.56 1.587-1.56h1.684v-2.86A22.108 22.108 0 0014.201 3c-2.444 0-4.122 1.492-4.122 4.231v2.355H7.332v3.21h2.753v8.201h3.312z"/></symbol><symbol viewBox="0 0 24 24" id="feather_send" xmlns="http://www.w3.org/2000/svg"><path d="M21 3l-9.9 9.9M21 3l-6.3 18-3.6-8.1L3 9.3 21 3z"/></symbol><symbol viewBox="0 0 20 20" id="icon-print" xmlns="http://www.w3.org/2000/svg"><path d="M3.828 3.125h12.344a.39.39 0 00.39-.39V1.718c0-.95-.769-1.719-1.718-1.719H5.156c-.949 0-1.718.77-1.718 1.719v1.015a.39.39 0 00.39.391zM2.11 4.375h15.78c1.164 0 2.11.946 2.11 2.11v7.343c0 1.163-.946 2.11-2.11 2.11h-1.328v-3.126A2.816 2.816 0 0013.75 10h-7.5a2.816 2.816 0 00-2.813 2.813v3.124H2.11A2.112 2.112 0 010 13.829V6.484c0-1.163.946-2.109 2.11-2.109zm14.14 4.688a.938.938 0 000-1.876.937.937 0 100 1.875z"/><path d="M6.25 11.875h7.5c.518 0 .938.42.938.938v4.374c0 .518-.42.938-.938.938h-7.5a.937.937 0 01-.938-.938v-4.374c0-.518.42-.938.938-.938z"/></symbol><symbol viewBox="0 0 24 24" id="instagram" xmlns="http://www.w3.org/2000/svg"><path d="M11.999 7.377a4.624 4.624 0 100 9.248 4.624 4.624 0 000-9.248zm0 7.627a3.004 3.004 0 110-6.008 3.004 3.004 0 010 6.008zm4.807-6.719a1.078 1.078 0 100-2.156 1.078 1.078 0 000 2.156z"/><path d="M20.533 6.11A4.605 4.605 0 0017.9 3.48a6.607 6.607 0 00-2.186-.42c-.963-.042-1.268-.054-3.71-.054s-2.755 0-3.71.054a6.554 6.554 0 00-2.184.42 4.6 4.6 0 00-2.633 2.63 6.585 6.585 0 00-.419 2.186c-.043.962-.056 1.267-.056 3.71 0 2.442 0 2.753.056 3.71.015.748.156 1.486.419 2.187a4.61 4.61 0 002.634 2.632 6.583 6.583 0 002.185.45c.963.042 1.268.055 3.71.055s2.755 0 3.71-.055a6.616 6.616 0 002.186-.42 4.613 4.613 0 002.633-2.632c.263-.7.404-1.438.419-2.186.043-.962.056-1.267.056-3.71s0-2.753-.056-3.71a6.583 6.583 0 00-.421-2.217zm-1.218 9.533a5.046 5.046 0 01-.311 1.688 2.987 2.987 0 01-1.712 1.71c-.535.2-1.1.305-1.67.312-.95.044-1.218.055-3.654.055-2.438 0-2.687 0-3.655-.055a4.961 4.961 0 01-1.67-.311 2.984 2.984 0 01-1.718-1.711 5.08 5.08 0 01-.311-1.67c-.043-.95-.053-1.217-.053-3.653 0-2.437 0-2.686.053-3.655a5.038 5.038 0 01.311-1.687c.305-.79.93-1.41 1.719-1.712a5.01 5.01 0 011.669-.311c.95-.043 1.218-.055 3.655-.055s2.687 0 3.654.055a4.96 4.96 0 011.67.31 2.99 2.99 0 011.712 1.713 5.06 5.06 0 01.311 1.669c.043.95.054 1.218.054 3.655 0 2.436 0 2.698-.043 3.654h-.011v-.001z"/></symbol><symbol viewBox="0 0 24 24" id="ion_attach-outline" xmlns="http://www.w3.org/2000/svg"><path fill-rule="evenodd" clip-rule="evenodd" d="M14.81 3.235A3.935 3.935 0 009.357 6.91l.006 8.84v.006a2.629 2.629 0 005.257 0V9a.75.75 0 00-1.5 0v6.736a1.13 1.13 0 01-2.257 0L10.858 6.9v-.004a2.435 2.435 0 114.87 0v8.917a3.725 3.725 0 01-5.166 3.492 3.727 3.727 0 01-2.288-3.492V7.488a.75.75 0 10-1.5 0v8.31a5.228 5.228 0 1010.453 0v-8.89a3.936 3.936 0 00-2.418-3.674z"/></symbol><symbol viewBox="0 0 36 36" id="ion_document" xmlns="http://www.w3.org/2000/svg"><path d="M30.094 15.75H20.25a3.375 3.375 0 01-3.375-3.375V2.531a.281.281 0 00-.281-.281h-6.469a4.5 4.5 0 00-4.5 4.5v22.5a4.5 4.5 0 004.5 4.5h15.75a4.5 4.5 0 004.5-4.5V16.031a.281.281 0 00-.281-.281z"/><path d="M29.476 13.26L19.365 3.15a.14.14 0 00-.24.099v9.127A1.125 1.125 0 0020.25 13.5h9.127a.14.14 0 00.1-.24z"/></symbol><symbol viewBox="0 0 20 16" id="mail" xmlns="http://www.w3.org/2000/svg"><path d="M18 0H2a2 2 0 00-2 2v12a2 2 0 002 2h16a2 2 0 002-2V2a2 2 0 00-2-2zm0 4.236l-8 4.882-8-4.882V2h16v2.236z"/></symbol><symbol viewBox="0 0 19 19" id="search" xmlns="http://www.w3.org/2000/svg"><path d="M8 16a7.952 7.952 0 004.897-1.688l4.396 4.396 1.414-1.414-4.396-4.396A7.952 7.952 0 0016 8c0-4.411-3.589-8-8-8S0 3.589 0 8s3.589 8 8 8zM8 2c3.309 0 6 2.691 6 6s-2.691 6-6 6-6-2.691-6-6 2.691-6 6-6z"/></symbol><symbol viewBox="0 0 22 20" id="star" xmlns="http://www.w3.org/2000/svg"><path d="M9.368 1.306a2 2 0 013.264 0l2.28 3.22a2 2 0 001.037.753l3.766 1.173a2 2 0 011.009 3.105l-2.358 3.162a2 2 0 00-.396 1.22l.049 3.944a2 2 0 01-2.642 1.92l-3.736-1.266a2 2 0 00-1.282 0l-3.736 1.265a2 2 0 01-2.642-1.919l.049-3.944a2 2 0 00-.396-1.22L1.276 9.557a2 2 0 011.009-3.105L6.05 5.279a2 2 0 001.038-.754l2.279-3.219z"/></symbol><symbol viewBox="0 0 16 16" id="telegram" xmlns="http://www.w3.org/2000/svg"><path d="M14.629 3.698l-2.012 9.618c-.152.679-.548.848-1.11.528l-3.066-2.29-1.48 1.442c-.163.166-.3.305-.616.305l.22-3.165 5.683-5.204c.247-.223-.054-.347-.384-.123L4.839 9.29l-3.024-.959c-.658-.208-.67-.667.137-.986L13.78 2.727c.548-.208 1.027.124.849.971z"/></symbol><symbol viewBox="0 0 24 24" id="uil_smile" xmlns="http://www.w3.org/2000/svg"><path d="M14.36 14.23a3.76 3.76 0 01-4.72 0 1.001 1.001 0 00-1.28 1.54 5.68 5.68 0 007.28 0 1.001 1.001 0 00-1.28-1.54zM9 11a1 1 0 100-2 1 1 0 000 2zm6-2a1 1 0 100 2 1 1 0 000-2zm-3-7a10 10 0 100 20 10 10 0 000-20zm0 18a8 8 0 110-16.001A8 8 0 0112 20z"/></symbol><symbol viewBox="0 0 24 24" id="user" xmlns="http://www.w3.org/2000/svg"><path fill-rule="evenodd" clip-rule="evenodd" d="M12 9.179c1.75 0 3.17-1.415 3.17-3.16s-1.42-3.16-3.17-3.16a3.165 3.165 0 00-3.17 3.16c0 1.745 1.42 3.16 3.17 3.16zm0 2.859c3.334 0 6.038-2.695 6.038-6.02C18.038 2.696 15.334 0 12 0 8.665 0 5.962 2.695 5.962 6.019c0 3.324 2.703 6.019 6.038 6.019z"/><path fill-rule="evenodd" clip-rule="evenodd" d="M4.583 13.163c-1.19.929-1.715 1.95-1.715 2.9 0 1.119.74 2.355 2.414 3.386C6.934 20.465 9.305 21.14 12 21.14c2.695 0 5.066-.675 6.718-1.692 1.673-1.031 2.414-2.268 2.414-3.386 0-.95-.525-1.971-1.715-2.9l1.77-2.25c1.646 1.286 2.813 3.06 2.813 5.15 0 2.476-1.625 4.493-3.775 5.818C18.052 23.219 15.14 24 12 24c-3.14 0-6.052-.782-8.225-2.12C1.625 20.556 0 18.539 0 16.063c0-2.09 1.167-3.864 2.814-5.15l1.769 2.25z"/></symbol><symbol viewBox="0 0 16 16" id="viber" xmlns="http://www.w3.org/2000/svg"><path d="M8 1.335c-1.071.013-3.374.19-4.662 1.37-.958.948-1.292 2.35-1.331 4.084-.033 1.728-.072 4.973 3.058 5.856v1.346s-.02.538.337.648c.438.14.688-.275 1.105-.72l.778-.879c2.142.178 3.782-.232 3.97-.293.435-.139 2.883-.451 3.283-3.696.41-3.351-.2-5.463-1.301-6.418h-.007c-.332-.306-1.668-1.279-4.652-1.29 0 0-.222-.014-.578-.008zm.037.942a7.02 7.02 0 01.488.011c2.527.007 3.732.767 4.017 1.023.927.794 1.405 2.697 1.055 5.495-.332 2.713-2.317 2.885-2.685 3.002-.156.05-1.6.406-3.42.289 0 0-1.356 1.634-1.78 2.055-.067.074-.146.095-.196.085-.071-.018-.093-.107-.089-.229l.013-2.233c-2.655-.733-2.498-3.5-2.47-4.946.033-1.446.304-2.628 1.113-3.43 1.088-.982 3.043-1.115 3.953-1.122zm.2 1.446a.166.166 0 100 .332 3.136 3.136 0 012.242.883c.606.588.9 1.378.912 2.411 0 .092.074.167.167.167V7.51a.167.167 0 00.168-.165 3.588 3.588 0 00-1.009-2.646c-.66-.645-1.496-.977-2.48-.977zm-2.198.382a.523.523 0 00-.342.067H5.69a2.61 2.61 0 00-.637.523 1.003 1.003 0 00-.256.525.71.71 0 00.026.302l.01.006c.172.504.396.988.67 1.444a8.48 8.48 0 001.29 1.762l.015.022.024.017.015.018.017.015c.532.505 1.127.94 1.769 1.295.734.4 1.18.588 1.447.667v.004c.078.024.15.034.221.034.228-.016.444-.109.613-.262a2.53 2.53 0 00.517-.638v-.004c.128-.241.085-.469-.1-.623-.37-.323-.77-.61-1.195-.857-.285-.155-.574-.061-.69.095l-.25.315c-.129.156-.361.134-.361.134l-.007.004C7.093 8.527 6.63 6.772 6.63 6.772s-.022-.239.139-.36l.312-.252c.15-.122.254-.41.094-.695a7.498 7.498 0 00-.856-1.194.475.475 0 00-.28-.167zm2.486.495c-.221 0-.221.334.003.334A2.098 2.098 0 0110 5.572 1.94 1.94 0 0110.5 7a.168.168 0 00.167.165l.007.009a.169.169 0 00.167-.167c.015-.662-.191-1.218-.595-1.663C9.84 4.9 9.273 4.65 8.549 4.6h-.024zm.274.898c-.228-.006-.236.335-.01.341.55.029.816.306.851.877a.166.166 0 00.165.163h.007a.168.168 0 00.16-.178c-.039-.744-.445-1.164-1.166-1.202H8.8z"/></symbol><symbol viewBox="0 0 24 24" id="vk" xmlns="http://www.w3.org/2000/svg"><path d="M21.579 6.855c.14-.465 0-.806-.662-.806h-2.193c-.558 0-.813.295-.953.619 0 0-1.115 2.719-2.695 4.482-.51.513-.743.675-1.021.675-.139 0-.341-.162-.341-.627V6.855c0-.558-.161-.806-.626-.806H9.642c-.348 0-.558.258-.558.504 0 .528.79.65.871 2.138v3.228c0 .707-.127.836-.407.836-.743 0-2.551-2.73-3.624-5.853-.209-.607-.42-.852-.98-.852H2.752c-.627 0-.752.295-.752.619 0 .582.743 3.462 3.461 7.27 1.812 2.602 4.363 4.012 6.687 4.012 1.393 0 1.565-.313 1.565-.853v-1.966c0-.626.133-.752.574-.752.324 0 .882.164 2.183 1.417 1.486 1.486 1.732 2.153 2.567 2.153h2.192c.626 0 .939-.313.759-.931-.197-.615-.907-1.51-1.849-2.57-.512-.603-1.277-1.253-1.51-1.578-.325-.42-.231-.604 0-.976.001 0 2.672-3.761 2.95-5.04z"/></symbol><symbol viewBox="0 0 16 16" id="whatsapp" xmlns="http://www.w3.org/2000/svg"><path fill-rule="evenodd" clip-rule="evenodd" d="M12.269 3.755A5.947 5.947 0 008.035 2 5.994 5.994 0 002.05 7.985a5.98 5.98 0 00.799 2.992L2 14.077l3.173-.832c.877.477 1.86.728 2.86.728h.002a5.993 5.993 0 005.533-8.276 5.953 5.953 0 00-1.3-1.942zm-4.234 9.208h-.002c-.89 0-1.765-.24-2.532-.694l-.181-.108-1.883.494.502-1.835-.118-.188a4.965 4.965 0 01-.76-2.647 4.982 4.982 0 016.88-4.597c.604.25 1.152.618 1.613 1.081a4.946 4.946 0 011.455 3.52 4.982 4.982 0 01-4.974 4.974zm2.729-3.726c-.15-.075-.885-.436-1.022-.486-.137-.05-.236-.075-.336.074-.1.15-.387.486-.474.586-.087.1-.175.112-.324.038-.15-.075-.631-.233-1.203-.742a4.505 4.505 0 01-.832-1.036c-.087-.15-.009-.231.066-.306.068-.066.15-.174.224-.262.075-.087.1-.149.15-.249.05-.1.025-.187-.013-.262-.037-.075-.337-.811-.461-1.11-.121-.29-.244-.252-.336-.256a6.418 6.418 0 00-.286-.005.55.55 0 00-.4.186c-.137.15-.523.512-.523 1.248s.536 1.447.61 1.547c.075.1 1.055 1.61 2.555 2.258.358.154.636.246.853.315.358.114.684.098.942.06.287-.043.885-.362 1.01-.711.124-.35.124-.649.087-.711-.038-.063-.138-.101-.287-.176z"/></symbol><symbol viewBox="0 0 24 24" id="youtube" xmlns="http://www.w3.org/2000/svg"><path d="M22.062 6.94a2.631 2.631 0 00-1.857-1.859c-1.638-.44-8.205-.44-8.205-.44s-6.567 0-8.205.438a2.628 2.628 0 00-1.857 1.859C1.5 8.578 1.5 12 1.5 12s0 3.422.438 5.06a2.632 2.632 0 001.857 1.859c1.638.44 8.205.44 8.205.44s6.567 0 8.206-.44a2.628 2.628 0 001.856-1.859C22.5 15.422 22.5 12 22.5 12s0-3.422-.438-5.06zm-12.148 8.2V8.86l5.438 3.117-5.438 3.164z"/></symbol></svg>