<svg width="1390" height="72" viewBox="0 0 1390 72" fill="none" xmlns="http://www.w3.org/2000/svg">
<g opacity="0.2">
<path d="M1002.97 1L1024.1 34.3824L999.59 71.5679" stroke="white"/>
<path d="M678.443 1L699.571 34.3824L675.062 71.5679" stroke="white"/>
<path d="M840.707 1L861.835 34.3824L837.326 71.5679" stroke="white"/>
<path d="M516.179 1L537.307 34.3824L512.798 71.5679" stroke="white"/>
<path d="M921.839 1L942.967 34.3824L918.458 71.5679" stroke="white"/>
<path d="M597.31 1L618.438 34.3824L593.93 71.5679" stroke="white"/>
<path d="M759.575 1L780.703 34.3824L756.194 71.5679" stroke="white"/>
<path d="M435.047 1L456.175 34.3824L431.666 71.5679" stroke="white"/>
<path d="M962.405 1L983.533 34.3824L959.024 71.5679" stroke="white"/>
<path d="M637.877 1L659.005 34.3824L634.496 71.5679" stroke="white"/>
<path d="M800.14 1L821.269 34.3824L796.76 71.5679" stroke="white"/>
<path d="M475.613 1L496.741 34.3824L472.232 71.5679" stroke="white"/>
<path d="M881.273 1L902.401 34.3824L877.892 71.5679" stroke="white"/>
<path d="M556.744 1L577.873 34.3824L553.364 71.5679" stroke="white"/>
<path d="M719.009 1L740.137 34.3824L715.628 71.5679" stroke="white"/>
<path d="M394.481 1L415.609 34.3824L391.1 71.5679" stroke="white"/>
<path d="M989.449 1L1010.58 34.3824L986.068 71.5679" stroke="white"/>
<path d="M664.921 1L686.049 34.3824L661.54 71.5679" stroke="white"/>
<path d="M827.184 1L848.312 34.3824L823.804 71.5679" stroke="white"/>
<path d="M502.657 1L523.785 34.3824L499.276 71.5679" stroke="white"/>
<path d="M908.317 1L929.445 34.3824L904.936 71.5679" stroke="white"/>
<path d="M583.789 1L604.917 34.3824L580.408 71.5679" stroke="white"/>
<path d="M746.053 1L767.181 34.3824L742.672 71.5679" stroke="white"/>
<path d="M421.525 1L442.653 34.3824L418.144 71.5679" stroke="white"/>
<path d="M948.883 1L970.011 34.3824L945.502 71.5679" stroke="white"/>
<path d="M624.355 1L645.483 34.3824L620.974 71.5679" stroke="white"/>
<path d="M786.618 1L807.747 34.3824L783.238 71.5679" stroke="white"/>
<path d="M462.091 1L483.219 34.3824L458.71 71.5679" stroke="white"/>
<path d="M867.751 1L888.879 34.3824L864.37 71.5679" stroke="white"/>
<path d="M543.222 1L564.351 34.3824L539.842 71.5679" stroke="white"/>
<path d="M705.487 1L726.615 34.3824L702.106 71.5679" stroke="white"/>
<path d="M380.959 1L402.087 34.3824L377.578 71.5679" stroke="white"/>
<path d="M975.927 1L997.055 34.3824L972.546 71.5679" stroke="white"/>
<path d="M651.399 1L672.527 34.3824L648.018 71.5679" stroke="white"/>
<path d="M813.663 1L834.791 34.3824L810.282 71.5679" stroke="white"/>
<path d="M489.135 1L510.263 34.3824L485.754 71.5679" stroke="white"/>
<path d="M894.795 1L915.923 34.3824L891.414 71.5679" stroke="white"/>
<path d="M570.266 1L591.395 34.3824L566.886 71.5679" stroke="white"/>
<path d="M732.531 1L753.659 34.3824L729.15 71.5679" stroke="white"/>
<path d="M408.003 1L429.131 34.3824L404.622 71.5679" stroke="white"/>
<path d="M935.361 1L956.489 34.3824L931.98 71.5679" stroke="white"/>
<path d="M610.833 1L631.961 34.3824L607.452 71.5679" stroke="white"/>
<path d="M773.096 1L794.225 34.3824L769.716 71.5679" stroke="white"/>
<path d="M448.569 1L469.697 34.3824L445.188 71.5679" stroke="white"/>
<path d="M854.229 1L875.357 34.3824L850.848 71.5679" stroke="white"/>
<path d="M529.7 1L550.829 34.3824L526.32 71.5679" stroke="white"/>
<path d="M691.965 1L713.093 34.3824L688.584 71.5679" stroke="white"/>
<path d="M367.436 1L388.564 34.3824L364.056 71.5679" stroke="white"/>
<path d="M1328.34 1L1349.47 34.3824L1324.96 71.5679" stroke="white"/>
<path d="M1166.08 1L1187.21 34.3824L1162.7 71.5679" stroke="white"/>
<path d="M1247.21 1L1268.34 34.3824L1243.83 71.5679" stroke="white"/>
<path d="M1084.95 1L1106.08 34.3824L1081.57 71.5679" stroke="white"/>
<path d="M1287.78 1L1308.91 34.3824L1284.4 71.5679" stroke="white"/>
<path d="M1125.51 1L1146.64 34.3824L1122.13 71.5679" stroke="white"/>
<path d="M1206.65 1L1227.77 34.3824L1203.27 71.5679" stroke="white"/>
<path d="M1368.91 1L1390.04 34.3824L1365.53 71.5679" stroke="white"/>
<path d="M1044.38 1L1065.51 34.3824L1041 71.5679" stroke="white"/>
<path d="M1314.82 1L1335.95 34.3824L1311.44 71.5679" stroke="white"/>
<path d="M1152.56 1L1173.69 34.3824L1149.18 71.5679" stroke="white"/>
<path d="M1233.69 1L1254.82 34.3824L1230.31 71.5679" stroke="white"/>
<path d="M1071.43 1L1092.55 34.3824L1068.05 71.5679" stroke="white"/>
<path d="M1274.26 1L1295.38 34.3824L1270.88 71.5679" stroke="white"/>
<path d="M1111.99 1L1133.12 34.3824L1108.61 71.5679" stroke="white"/>
<path d="M1193.12 1L1214.25 34.3824L1189.74 71.5679" stroke="white"/>
<path d="M1355.39 1L1376.52 34.3824L1352.01 71.5679" stroke="white"/>
<path d="M1030.86 1L1051.99 34.3824L1027.48 71.5679" stroke="white"/>
<path d="M1301.3 1L1322.43 34.3824L1297.92 71.5679" stroke="white"/>
<path d="M1139.04 1L1160.16 34.3824L1135.66 71.5679" stroke="white"/>
<path d="M1220.17 1L1241.3 34.3824L1216.79 71.5679" stroke="white"/>
<path d="M1382.43 1L1403.56 34.3824L1379.05 71.5679" stroke="white"/>
<path d="M1057.9 1L1079.03 34.3824L1054.52 71.5679" stroke="white"/>
<path d="M1260.73 1L1281.86 34.3824L1257.35 71.5679" stroke="white"/>
<path d="M1098.47 1L1119.6 34.3824L1095.09 71.5679" stroke="white"/>
<path d="M1179.6 1L1200.73 34.3824L1176.22 71.5679" stroke="white"/>
<path d="M1341.87 1L1362.99 34.3824L1338.49 71.5679" stroke="white"/>
<path d="M1017.34 1L1038.47 34.3824L1013.96 71.5679" stroke="white"/>
<path d="M353.915 1L375.043 34.3824L350.534 71.5679" stroke="white"/>
<path d="M29.3865 1L50.5146 34.3824L26.006 71.5679" stroke="white"/>
<path d="M191.651 1L212.779 34.3824L188.27 71.5679" stroke="white"/>
<path d="M272.783 1L293.911 34.3824L269.402 71.5679" stroke="white"/>
<path d="M110.518 1L131.646 34.3824L107.138 71.5679" stroke="white"/>
<path d="M313.348 1L334.477 34.3824L309.968 71.5679" stroke="white"/>
<path d="M-11.1794 1L9.94873 34.3824L-14.5599 71.5679" stroke="white"/>
<path d="M151.085 1L172.213 34.3824L147.704 71.5679" stroke="white"/>
<path d="M232.217 1L253.345 34.3824L228.836 71.5679" stroke="white"/>
<path d="M69.9524 1L91.0806 34.3824L66.5719 71.5679" stroke="white"/>
<path d="M340.392 1L361.521 34.3824L337.012 71.5679" stroke="white"/>
<path d="M15.8645 1L36.9927 34.3824L12.484 71.5679" stroke="white"/>
<path d="M178.129 1L199.257 34.3824L174.748 71.5679" stroke="white"/>
<path d="M259.261 1L280.389 34.3824L255.88 71.5679" stroke="white"/>
<path d="M96.9964 1L118.125 34.3824L93.6159 71.5679" stroke="white"/>
<path d="M299.826 1L320.955 34.3824L296.446 71.5679" stroke="white"/>
<path d="M137.562 1L158.69 34.3824L134.182 71.5679" stroke="white"/>
<path d="M218.695 1L239.823 34.3824L215.314 71.5679" stroke="white"/>
<path d="M56.4305 1L77.5586 34.3824L53.05 71.5679" stroke="white"/>
<path d="M326.87 1L347.999 34.3824L323.49 71.5679" stroke="white"/>
<path d="M2.34257 1L23.4707 34.3824L-1.03793 71.5679" stroke="white"/>
<path d="M164.607 1L185.735 34.3824L161.226 71.5679" stroke="white"/>
<path d="M245.739 1L266.867 34.3824L242.358 71.5679" stroke="white"/>
<path d="M83.4744 1L104.603 34.3824L80.0939 71.5679" stroke="white"/>
<path d="M286.304 1L307.433 34.3824L282.924 71.5679" stroke="white"/>
<path d="M124.041 1L145.169 34.3824L120.66 71.5679" stroke="white"/>
<path d="M205.173 1L226.301 34.3824L201.792 71.5679" stroke="white"/>
<path d="M42.9085 1L64.0366 34.3824L39.528 71.5679" stroke="white"/>
</g>
</svg>
