<svg width="22" height="20" viewBox="0 0 22 20" fill="none" xmlns="http://www.w3.org/2000/svg">
<path d="M9.36761 1.30597C10.1646 0.180048 11.8354 0.180048 12.6324 1.30597L14.9113 4.52529C15.1651 4.88376 15.5298 5.14874 15.9491 5.27931L19.7151 6.45189C21.0322 6.86198 21.5485 8.45092 20.724 9.55687L18.3665 12.7191C18.104 13.0712 17.9647 13.5 17.9701 13.9391L18.0186 17.8831C18.0356 19.2625 16.684 20.2445 15.3774 19.8021L11.6414 18.5372C11.2254 18.3963 10.7746 18.3963 10.3586 18.5372L6.62262 19.8021C5.31601 20.2445 3.96438 19.2625 3.98136 17.8831L4.02993 13.9391C4.03534 13.5 3.89603 13.0712 3.63352 12.7191L1.27599 9.55687C0.451477 8.45092 0.967752 6.86198 2.28486 6.45189L6.05085 5.27931C6.4702 5.14874 6.83491 4.88376 7.08867 4.52529L9.36761 1.30597Z" fill="#008540"/>
</svg>
