<svg width="24" height="24" viewBox="0 0 24 24" fill="none" xmlns="http://www.w3.org/2000/svg">
<path fill-rule="evenodd" clip-rule="evenodd" d="M11.9999 9.17869C13.7505 9.17869 15.1697 7.76397 15.1697 6.01881C15.1697 4.27366 13.7505 2.85894 11.9999 2.85894C10.2493 2.85894 8.83008 4.27366 8.83008 6.01881C8.83008 7.76397 10.2493 9.17869 11.9999 9.17869ZM11.9999 12.0376C15.3344 12.0376 18.0376 9.34291 18.0376 6.01881C18.0376 2.69471 15.3344 0 11.9999 0C8.66534 0 5.96216 2.69471 5.96216 6.01881C5.96216 9.34291 8.66534 12.0376 11.9999 12.0376Z" fill="#008540"/>
<path fill-rule="evenodd" clip-rule="evenodd" d="M4.58253 13.1629C3.39312 14.0919 2.86792 15.1135 2.86792 16.0634C2.86792 17.1815 3.6087 18.4178 5.28235 19.4486C6.93358 20.4655 9.30497 21.1411 12 21.1411C14.695 21.1411 17.0664 20.4655 18.7176 19.4486C20.3913 18.4178 21.1321 17.1815 21.1321 16.0634C21.1321 15.1135 20.6069 14.0919 19.4175 13.1629L21.1863 10.9125C22.8329 12.1986 24 13.9734 24 16.0634C24 18.5391 22.3755 20.5564 20.225 21.8808C18.0521 23.219 15.1404 24.0001 12 24.0001C8.85956 24.0001 5.94794 23.219 3.77501 21.8808C1.62451 20.5564 0 18.5391 0 16.0634C0 13.9734 1.16709 12.1986 2.8137 10.9125L4.58253 13.1629Z" fill="#008540"/>
</svg>
